<?xml version="1.0" encoding="UTF-8"?>
<svg version="1.1" xmlns="http://www.w3.org/2000/svg" width="313" height="313">
<path d="M0 0 C103.29 0 206.58 0 313 0 C313 103.29 313 206.58 313 313 C209.71 313 106.42 313 0 313 C0 209.71 0 106.42 0 0 Z " fill="#FEFEFE" transform="translate(0,0)"/>
<path d="M0 0 C1.25039566 -0.00708481 2.50079132 -0.01416962 3.78907776 -0.02146912 C5.16192663 -0.01917563 6.53477516 -0.01666598 7.90762329 -0.01396179 C9.36349244 -0.01831234 10.8193593 -0.02349664 12.27522278 -0.02944946 C16.21951962 -0.04281457 20.1637205 -0.04342086 24.10803556 -0.04088616 C27.40562095 -0.03981466 30.70318706 -0.04470447 34.0007683 -0.04949158 C41.78337402 -0.06057839 49.56593147 -0.06102898 57.34854126 -0.05497742 C65.36585327 -0.048939 73.38298972 -0.06124713 81.40027177 -0.08254749 C88.29389034 -0.10018617 95.18745314 -0.10616123 102.08109343 -0.10290974 C106.19379363 -0.10110019 110.30636862 -0.10370016 114.41904831 -0.11762428 C118.2883823 -0.13023481 122.15744347 -0.12822826 126.02677345 -0.11521339 C127.4424696 -0.11285497 128.85818513 -0.11555587 130.27385902 -0.12383652 C138.65103031 -0.16928288 145.83823187 -0.19829998 152.88272095 4.83882141 C153.41252563 5.39054016 153.94233032 5.94225891 154.4881897 6.51069641 C155.03088501 7.05210266 155.57358032 7.59350891 156.13272095 8.15132141 C160.93043249 14.71021821 161.10958427 20.69614931 161.06387329 28.57685852 C161.07175873 30.25623756 161.07175873 30.25623756 161.07980347 31.96954346 C161.09297399 35.65918557 161.08427482 39.34839389 161.0741272 43.03804016 C161.07614891 45.60961998 161.07906116 48.18119924 161.08282471 50.7527771 C161.08724421 56.13853451 161.08111726 61.52412995 161.06680298 66.90986633 C161.05048652 73.12030522 161.0557614 79.33044844 161.0722822 85.54088014 C161.08758266 91.53433976 161.08590427 97.52765575 161.07713699 103.52113533 C161.07513933 106.06278589 161.07757897 108.60444402 161.08457565 111.14608574 C161.09221732 114.7026386 161.08054661 118.25862868 161.06387329 121.81513977 C161.06994598 122.86006592 161.07601868 123.90499207 161.08227539 124.98158264 C161.02231606 131.90585016 160.40898164 137.97845881 155.8085022 143.50288391 C155.14592407 144.04171204 154.48334595 144.58054016 153.8006897 145.13569641 C153.14326782 145.68999329 152.48584595 146.24429016 151.8085022 146.81538391 C147.37445925 149.82013829 143.59680921 150.51279474 138.28181458 150.53485107 C136.99072281 150.5448262 135.69963104 150.55480133 134.36941528 150.56507874 C132.94570935 150.56597445 131.52200326 150.56663807 130.09829712 150.5670929 C128.5933135 150.57471758 127.08833376 150.58314562 125.58335876 150.59231567 C121.50059572 150.61423734 117.41790756 150.62305645 113.33509231 150.62814212 C110.78231341 150.63178851 108.22955405 150.63803005 105.67678261 150.64514351 C96.76519537 150.6696301 87.85366627 150.68268815 78.94204712 150.68623352 C70.64462107 150.68986798 62.3475651 150.71975879 54.05025214 150.7616381 C46.91886227 150.79636647 39.78759491 150.8117824 32.65612108 150.81247956 C28.40021779 150.81327152 24.14469162 150.82197269 19.88887596 150.85047722 C15.88400558 150.87670176 11.87982378 150.87883913 7.87490654 150.86282158 C6.40920761 150.86101053 4.94346869 150.86766682 3.47785568 150.88364029 C-4.6743292 150.96703772 -11.05596627 150.90170997 -17.3243103 145.26069641 C-24.08253461 138.31981739 -24.77039936 131.30468137 -24.74423218 122.06806946 C-24.75270172 120.96144958 -24.76117126 119.85482971 -24.76989746 118.7146759 C-24.79323973 115.06713778 -24.79429014 111.42002225 -24.7930603 107.77241516 C-24.80016412 105.22804598 -24.80786344 102.6836784 -24.81613159 100.13931274 C-24.82957054 94.80903547 -24.83132993 89.4789132 -24.82528687 84.14863586 C-24.81865305 78.00853308 -24.84149158 71.86903209 -24.8786006 65.72905129 C-24.91312799 59.79861858 -24.91962392 53.86836956 -24.91551208 47.93782997 C-24.91720092 45.42572552 -24.92682049 42.91361297 -24.94465637 40.40157127 C-24.96690012 36.88107074 -24.95711432 33.36200444 -24.93954468 29.84150696 C-24.95280792 28.8131221 -24.96607117 27.78473724 -24.97973633 26.72518921 C-24.88920728 18.88072088 -22.93828027 12.20320471 -17.53960419 6.31374645 C-12.39093514 1.47579252 -7.02803487 0.01332369 0 0 Z " fill="#FEFDFD" transform="translate(88.32431030273438,70.73930358886719)"/>
<path d="M0 0 C1.25039566 -0.00708481 2.50079132 -0.01416962 3.78907776 -0.02146912 C5.16192663 -0.01917563 6.53477516 -0.01666598 7.90762329 -0.01396179 C9.36349244 -0.01831234 10.8193593 -0.02349664 12.27522278 -0.02944946 C16.21951962 -0.04281457 20.1637205 -0.04342086 24.10803556 -0.04088616 C27.40562095 -0.03981466 30.70318706 -0.04470447 34.0007683 -0.04949158 C41.78337402 -0.06057839 49.56593147 -0.06102898 57.34854126 -0.05497742 C65.36585327 -0.048939 73.38298972 -0.06124713 81.40027177 -0.08254749 C88.29389034 -0.10018617 95.18745314 -0.10616123 102.08109343 -0.10290974 C106.19379363 -0.10110019 110.30636862 -0.10370016 114.41904831 -0.11762428 C118.2883823 -0.13023481 122.15744347 -0.12822826 126.02677345 -0.11521339 C127.4424696 -0.11285497 128.85818513 -0.11555587 130.27385902 -0.12383652 C138.65103031 -0.16928288 145.83823187 -0.19829998 152.88272095 4.83882141 C153.41252563 5.39054016 153.94233032 5.94225891 154.4881897 6.51069641 C155.03088501 7.05210266 155.57358032 7.59350891 156.13272095 8.15132141 C160.93043249 14.71021821 161.10958427 20.69614931 161.06387329 28.57685852 C161.07175873 30.25623756 161.07175873 30.25623756 161.07980347 31.96954346 C161.09297399 35.65918557 161.08427482 39.34839389 161.0741272 43.03804016 C161.07614891 45.60961998 161.07906116 48.18119924 161.08282471 50.7527771 C161.08724421 56.13853451 161.08111726 61.52412995 161.06680298 66.90986633 C161.05048652 73.12030522 161.0557614 79.33044844 161.0722822 85.54088014 C161.08758266 91.53433976 161.08590427 97.52765575 161.07713699 103.52113533 C161.07513933 106.06278589 161.07757897 108.60444402 161.08457565 111.14608574 C161.09221732 114.7026386 161.08054661 118.25862868 161.06387329 121.81513977 C161.06994598 122.86006592 161.07601868 123.90499207 161.08227539 124.98158264 C161.02231606 131.90585016 160.40898164 137.97845881 155.8085022 143.50288391 C155.14592407 144.04171204 154.48334595 144.58054016 153.8006897 145.13569641 C153.14326782 145.68999329 152.48584595 146.24429016 151.8085022 146.81538391 C147.37445925 149.82013829 143.59680921 150.51279474 138.28181458 150.53485107 C136.99072281 150.5448262 135.69963104 150.55480133 134.36941528 150.56507874 C132.94570935 150.56597445 131.52200326 150.56663807 130.09829712 150.5670929 C128.5933135 150.57471758 127.08833376 150.58314562 125.58335876 150.59231567 C121.50059572 150.61423734 117.41790756 150.62305645 113.33509231 150.62814212 C110.78231341 150.63178851 108.22955405 150.63803005 105.67678261 150.64514351 C96.76519537 150.6696301 87.85366627 150.68268815 78.94204712 150.68623352 C70.64462107 150.68986798 62.3475651 150.71975879 54.05025214 150.7616381 C46.91886227 150.79636647 39.78759491 150.8117824 32.65612108 150.81247956 C28.40021779 150.81327152 24.14469162 150.82197269 19.88887596 150.85047722 C15.88400558 150.87670176 11.87982378 150.87883913 7.87490654 150.86282158 C6.40920761 150.86101053 4.94346869 150.86766682 3.47785568 150.88364029 C-4.6743292 150.96703772 -11.05596627 150.90170997 -17.3243103 145.26069641 C-24.08253461 138.31981739 -24.77039936 131.30468137 -24.74423218 122.06806946 C-24.75270172 120.96144958 -24.76117126 119.85482971 -24.76989746 118.7146759 C-24.79323973 115.06713778 -24.79429014 111.42002225 -24.7930603 107.77241516 C-24.80016412 105.22804598 -24.80786344 102.6836784 -24.81613159 100.13931274 C-24.82957054 94.80903547 -24.83132993 89.4789132 -24.82528687 84.14863586 C-24.81865305 78.00853308 -24.84149158 71.86903209 -24.8786006 65.72905129 C-24.91312799 59.79861858 -24.91962392 53.86836956 -24.91551208 47.93782997 C-24.91720092 45.42572552 -24.92682049 42.91361297 -24.94465637 40.40157127 C-24.96690012 36.88107074 -24.95711432 33.36200444 -24.93954468 29.84150696 C-24.95280792 28.8131221 -24.96607117 27.78473724 -24.97973633 26.72518921 C-24.88920728 18.88072088 -22.93828027 12.20320471 -17.53960419 6.31374645 C-12.39093514 1.47579252 -7.02803487 0.01332369 0 0 Z M-12.3243103 16.26069641 C-13.70556048 19.02319677 -13.51510337 21.20800741 -13.3243103 24.26069641 C-12.6643103 24.92069641 -12.0043103 25.58069641 -11.3243103 26.26069641 C-11.1993103 28.88569641 -11.1993103 28.88569641 -11.3243103 31.26069641 C-11.9843103 31.59069641 -12.6443103 31.92069641 -13.3243103 32.26069641 C-13.44012112 45.34301212 -13.52898396 58.42520603 -13.58337116 71.5079298 C-13.60947336 77.58268517 -13.64488383 83.65709004 -13.70150757 89.73164368 C-13.75580354 95.5931067 -13.78572614 101.45423243 -13.79869652 107.31592751 C-13.80794062 109.55309167 -13.82599213 111.79023721 -13.85296059 114.02725792 C-13.88921771 117.15910723 -13.8942569 120.28955992 -13.89193726 123.42158508 C-13.90991364 124.34803329 -13.92789001 125.27448151 -13.94641113 126.22900391 C-13.9096153 130.81530061 -13.83148396 132.63468185 -10.85133362 136.31314087 C-10.01741592 136.9558342 -9.18349823 137.59852753 -8.3243103 138.26069641 C-7.9943103 138.59069641 -7.6643103 138.92069641 -7.3243103 139.26069641 C-5.38683716 139.36609474 -3.44548085 139.40037095 -1.50515747 139.40786743 C0.39187172 139.41860039 0.39187172 139.41860039 2.32722473 139.42955017 C3.74188208 139.43239075 5.15653969 139.43510244 6.57119751 139.43769836 C8.05089987 139.44396015 9.53060065 139.45060669 11.01029968 139.45761108 C15.04143387 139.47504932 19.07255617 139.48558085 23.10371876 139.49381661 C25.62093374 139.49896155 28.138145 139.50503756 30.65535736 139.51132774 C38.52717927 139.53038902 46.39899174 139.54461728 54.2708323 139.55293971 C63.36458364 139.56271192 72.45809155 139.58902694 81.5517571 139.62944061 C88.57515397 139.6595847 95.59848101 139.67440702 102.62194133 139.67772073 C106.81907734 139.68007351 111.01595358 139.68906289 115.21302032 139.7141819 C119.1627493 139.73743751 123.11204705 139.7417062 127.06182671 139.73142052 C128.5110435 139.7309244 129.96028133 139.73726729 131.40943336 139.75097656 C133.38907759 139.76865529 135.36890845 139.75921712 137.34860229 139.7484436 C138.45622044 139.75083196 139.56383858 139.75322031 140.7050209 139.75568104 C144.37217113 139.14464591 146.02409376 137.81401799 148.6756897 135.26069641 C151.3622807 130.78076613 150.96452385 125.88970983 150.9503479 120.82051086 C150.95545883 119.87689697 150.96056976 118.93328308 150.96583557 117.96107483 C150.97971292 114.84864426 150.97877689 111.73643544 150.97647095 108.62397766 C150.98035746 106.46115028 150.98469204 104.29832367 150.98945618 102.13549805 C150.99691333 97.60713727 150.99662969 93.07885447 150.99136353 88.55049133 C150.9855542 82.73606668 151.00253769 76.92195905 151.0257082 71.10758686 C151.04040477 66.64417645 151.04132308 62.18084326 151.03819847 57.71741295 C151.03871323 55.5727138 151.04397982 53.42801049 151.05401039 51.28333473 C151.06628537 48.29290931 151.05963832 45.30311298 151.04800415 42.31269836 C151.05564789 41.4207225 151.06329163 40.52874664 151.07116699 39.60974121 C151.08354818 36.90693764 151.08354818 36.90693764 150.6756897 33.26069641 C149.6856897 32.60069641 148.6956897 31.94069641 147.6756897 31.26069641 C147.4881897 28.63569641 147.4881897 28.63569641 147.6756897 26.26069641 C148.6656897 25.93069641 149.6556897 25.60069641 150.6756897 25.26069641 C151.17907767 19.97512275 150.02245965 17.35119303 146.6756897 13.26069641 C143.33604563 11.0689827 140.52100421 11.00340463 136.57843018 10.98654175 C135.32789352 10.97656662 134.07735687 10.96659149 132.78892517 10.95631409 C131.40563978 10.95541833 130.02235421 10.95475474 128.6390686 10.95429993 C127.18024776 10.94667726 125.72143094 10.93824957 124.26261902 10.92907715 C120.30182777 10.90713668 116.34111372 10.89833395 112.38026857 10.8932507 C109.90506736 10.88960681 107.42988635 10.8833666 104.95469284 10.87624931 C96.31773745 10.85175705 87.6808421 10.83870326 79.04385376 10.8351593 C70.99577226 10.83152347 62.94807199 10.80162438 54.90010703 10.75975472 C47.98787461 10.72505568 41.07576857 10.70961094 34.16344965 10.70891327 C30.03614076 10.70812036 25.90922031 10.69937568 21.7820015 10.6709156 C17.89943921 10.64474096 14.01758757 10.64252573 10.13497734 10.65857124 C8.71197777 10.66038622 7.2889374 10.65369037 5.86602592 10.63775253 C-4.48294702 10.35444775 -4.48294702 10.35444775 -12.3243103 16.26069641 Z " fill="#0B0B0B" transform="translate(88.32431030273438,70.73930358886719)"/>
<path d="M0 0 C2 2 2 2 2.1875 5.0625 C1.35367505 9.90471238 -2.15239131 12.52922134 -5.60546875 15.75390625 C-7.69513757 17.71403606 -9.57571705 19.70217932 -11.4375 21.875 C-14.18735858 25.0821099 -17.01368149 28.20428806 -19.875 31.3125 C-23.94859909 35.77873514 -27.80827703 40.36921379 -31.6015625 45.07421875 C-33.7728739 47.72293575 -35.99408978 50.31263203 -38.24365234 52.89428711 C-43.29184194 58.69438695 -48.10024658 64.62507786 -52.75 70.75 C-53.29688477 71.47026367 -53.84376953 72.19052734 -54.40722656 72.93261719 C-56.36263331 75.51251935 -58.31540187 78.09441064 -60.26757812 80.67675781 C-61.33636468 82.08281796 -62.41765757 83.47934792 -63.5 84.875 C-64.0671875 85.61492187 -64.634375 86.35484375 -65.21875 87.1171875 C-67.29142702 89.30804347 -69.3138579 90.63987408 -72 92 C-76.91960039 92.10694783 -79.62838728 90.17644738 -83.09765625 86.98046875 C-86.11732474 83.83678923 -88.82629259 80.46875836 -91.54296875 77.0625 C-94.15876 73.8021179 -96.84945454 70.61674786 -99.5625 67.4375 C-103.47538423 62.83605066 -107.29779427 58.17565174 -111.0546875 53.4453125 C-117.15479307 45.77730831 -123.43344416 38.27196866 -129.83886719 30.85839844 C-132.0004973 28.35310234 -134.12694294 25.84092534 -136.19140625 23.25390625 C-138.28961747 20.63907283 -140.59941647 18.33741028 -143 16 C-145 14 -145 14 -145.3125 11 C-145.209375 10.01 -145.10625 9.02 -145 8 C-142 6 -142 6 -139.2109375 6.078125 C-135.29583794 7.20216818 -132.68847532 9.18007472 -129.625 11.75 C-128.72587891 12.48101929 -128.72587891 12.48101929 -127.80859375 13.22680664 C-126.52636309 14.27093235 -125.2481412 15.31999715 -123.97363281 16.37353516 C-122.00251333 17.99792877 -120.01597267 19.60119189 -118.0234375 21.19921875 C-103.83084292 32.60129954 -90.22029293 44.48330809 -77 57 C-74.19571434 55.72494758 -72.18395629 54.42022876 -70.046875 52.20703125 C-69.50933594 51.65853516 -68.97179687 51.11003906 -68.41796875 50.54492188 C-67.59232422 49.68737305 -67.59232422 49.68737305 -66.75 48.8125 C-18.3637739 -1.14773587 -18.3637739 -1.14773587 0 0 Z " fill="#F8754D" transform="translate(227,99)"/>
</svg>
