<?xml version="1.0" encoding="UTF-8"?>
<svg version="1.1" xmlns="http://www.w3.org/2000/svg" width="313" height="313">
<path d="M0 0 C103.29 0 206.58 0 313 0 C313 103.29 313 206.58 313 313 C209.71 313 106.42 313 0 313 C0 209.71 0 106.42 0 0 Z " fill="#FEFEFE" transform="translate(0,0)"/>
<path d="M0 0 C1.27834213 -0.00852997 2.55668427 -0.01705994 3.87376404 -0.02584839 C5.28326428 -0.02514941 6.69276443 -0.02422637 8.1022644 -0.02310181 C9.59252763 -0.02908892 11.08278776 -0.03589489 12.57304382 -0.04345703 C16.61676241 -0.06111124 20.66039632 -0.06581232 24.70414972 -0.0670886 C27.23417061 -0.06851173 29.76417008 -0.07278451 32.29418564 -0.07808304 C41.13143018 -0.09658534 49.96861442 -0.10475389 58.80587769 -0.10317993 C67.02480383 -0.10198028 75.24346661 -0.12304738 83.46232617 -0.15466726 C90.53176733 -0.18088917 97.60112284 -0.19154467 104.67061222 -0.19026911 C108.88686752 -0.18976097 113.10288903 -0.19536102 117.31909561 -0.21662521 C121.29025548 -0.2361062 125.26096102 -0.23606547 129.23213768 -0.22159195 C130.68205498 -0.21951451 132.13200143 -0.22414065 133.58186913 -0.23631287 C145.88013302 -0.33279476 156.49226636 1.55506091 165.66427612 10.26742554 C173.6927317 19.17628617 174.11092213 28.61641206 174.084198 40.12191772 C174.09154711 41.62085601 174.10013578 43.11978864 174.10986328 44.61871338 C174.13200316 48.6726856 174.13501364 52.7264541 174.13311577 56.78047848 C174.13299568 60.17472533 174.14157565 63.56892962 174.14989328 66.96316457 C174.16910151 74.97802549 174.17202112 82.99278228 174.16525269 91.00765991 C174.15861868 99.25112407 174.18145622 107.49414001 174.21856642 115.7375133 C174.24935207 122.83591865 174.26061373 129.93418049 174.2567296 137.03265119 C174.25467067 141.26290988 174.26000738 145.49281989 174.28462219 149.72301483 C174.30703318 153.70580225 174.304894 157.68786615 174.28469467 161.67065811 C174.28130941 163.12338204 174.28626527 164.57615604 174.30067825 166.02881241 C174.39814833 176.59050725 172.81774747 185.9172376 166.47677612 194.64242554 C158.94133167 201.67550703 150.46856197 205.49251921 140.09477234 205.54830933 C138.81512604 205.55972961 137.53547974 205.5711499 136.21705627 205.58291626 C134.81640664 205.58540639 133.41575657 205.5876567 132.0151062 205.58969116 C130.52616897 205.5989595 129.03723644 205.60901042 127.54830933 205.61978149 C123.51705661 205.64591904 119.48587035 205.65889772 115.45454621 205.66780281 C112.93087208 205.67368238 110.40721575 205.68189534 107.88355064 205.69081116 C99.97275534 205.7181324 92.06200116 205.73747951 84.15116197 205.74521494 C75.04663907 205.75416879 65.94271783 205.78924122 56.83837777 205.84721613 C49.78246886 205.89057361 42.72672845 205.91063006 35.67068785 205.91329718 C31.46490798 205.91538454 27.25969474 205.92701007 23.05405617 205.9629364 C19.09338402 205.9961145 15.13369786 206.00010703 11.17293549 205.98265839 C9.72825397 205.98112901 8.28351704 205.98965191 6.83897209 206.00957489 C-4.69556595 206.15918968 -12.07882647 203.20695354 -21.71072388 197.14242554 C-27.73564545 190.54370191 -31.44897878 182.01904997 -31.4828949 173.12078857 C-31.4900502 171.8338913 -31.49720551 170.54699402 -31.50457764 169.22109985 C-31.50741791 167.79171777 -31.51012964 166.36233543 -31.51272583 164.93295288 C-31.51899137 163.42988935 -31.52563826 161.92682737 -31.53263855 160.42376709 C-31.55367532 155.48364337 -31.56404243 150.54351936 -31.57400513 145.60336304 C-31.57805321 143.90131235 -31.58217014 142.19926182 -31.58635521 140.49721146 C-31.60540818 132.49831134 -31.61963746 124.49942044 -31.62796718 116.50050199 C-31.63773222 107.27607098 -31.66403202 98.0518804 -31.70446807 88.82753408 C-31.73466727 81.69278271 -31.74943976 74.5581001 -31.75274819 67.42328608 C-31.75509488 63.164573 -31.76400504 58.90611673 -31.78920937 54.64747238 C-31.81256103 50.63696916 -31.81669507 46.62689052 -31.80644798 42.61633682 C-31.80595418 41.14944798 -31.81222846 39.68253774 -31.82600403 38.2157135 C-31.89877113 30.00370961 -31.57444571 23.42980222 -27.33572388 16.26742554 C-26.66670044 15.07053101 -26.66670044 15.07053101 -25.98416138 13.84945679 C-19.93899374 5.44926986 -10.37493122 0.03134506 0 0 Z " fill="#FDFCFC" transform="translate(85.33572387695313,53.732574462890625)"/>
<path d="M0 0 C1.27834213 -0.00852997 2.55668427 -0.01705994 3.87376404 -0.02584839 C5.28326428 -0.02514941 6.69276443 -0.02422637 8.1022644 -0.02310181 C9.59252763 -0.02908892 11.08278776 -0.03589489 12.57304382 -0.04345703 C16.61676241 -0.06111124 20.66039632 -0.06581232 24.70414972 -0.0670886 C27.23417061 -0.06851173 29.76417008 -0.07278451 32.29418564 -0.07808304 C41.13143018 -0.09658534 49.96861442 -0.10475389 58.80587769 -0.10317993 C67.02480383 -0.10198028 75.24346661 -0.12304738 83.46232617 -0.15466726 C90.53176733 -0.18088917 97.60112284 -0.19154467 104.67061222 -0.19026911 C108.88686752 -0.18976097 113.10288903 -0.19536102 117.31909561 -0.21662521 C121.29025548 -0.2361062 125.26096102 -0.23606547 129.23213768 -0.22159195 C130.68205498 -0.21951451 132.13200143 -0.22414065 133.58186913 -0.23631287 C145.88013302 -0.33279476 156.49226636 1.55506091 165.66427612 10.26742554 C173.6927317 19.17628617 174.11092213 28.61641206 174.084198 40.12191772 C174.09154711 41.62085601 174.10013578 43.11978864 174.10986328 44.61871338 C174.13200316 48.6726856 174.13501364 52.7264541 174.13311577 56.78047848 C174.13299568 60.17472533 174.14157565 63.56892962 174.14989328 66.96316457 C174.16910151 74.97802549 174.17202112 82.99278228 174.16525269 91.00765991 C174.15861868 99.25112407 174.18145622 107.49414001 174.21856642 115.7375133 C174.24935207 122.83591865 174.26061373 129.93418049 174.2567296 137.03265119 C174.25467067 141.26290988 174.26000738 145.49281989 174.28462219 149.72301483 C174.30703318 153.70580225 174.304894 157.68786615 174.28469467 161.67065811 C174.28130941 163.12338204 174.28626527 164.57615604 174.30067825 166.02881241 C174.39814833 176.59050725 172.81774747 185.9172376 166.47677612 194.64242554 C158.94133167 201.67550703 150.46856197 205.49251921 140.09477234 205.54830933 C138.81512604 205.55972961 137.53547974 205.5711499 136.21705627 205.58291626 C134.81640664 205.58540639 133.41575657 205.5876567 132.0151062 205.58969116 C130.52616897 205.5989595 129.03723644 205.60901042 127.54830933 205.61978149 C123.51705661 205.64591904 119.48587035 205.65889772 115.45454621 205.66780281 C112.93087208 205.67368238 110.40721575 205.68189534 107.88355064 205.69081116 C99.97275534 205.7181324 92.06200116 205.73747951 84.15116197 205.74521494 C75.04663907 205.75416879 65.94271783 205.78924122 56.83837777 205.84721613 C49.78246886 205.89057361 42.72672845 205.91063006 35.67068785 205.91329718 C31.46490798 205.91538454 27.25969474 205.92701007 23.05405617 205.9629364 C19.09338402 205.9961145 15.13369786 206.00010703 11.17293549 205.98265839 C9.72825397 205.98112901 8.28351704 205.98965191 6.83897209 206.00957489 C-4.69556595 206.15918968 -12.07882647 203.20695354 -21.71072388 197.14242554 C-27.73564545 190.54370191 -31.44897878 182.01904997 -31.4828949 173.12078857 C-31.4900502 171.8338913 -31.49720551 170.54699402 -31.50457764 169.22109985 C-31.50741791 167.79171777 -31.51012964 166.36233543 -31.51272583 164.93295288 C-31.51899137 163.42988935 -31.52563826 161.92682737 -31.53263855 160.42376709 C-31.55367532 155.48364337 -31.56404243 150.54351936 -31.57400513 145.60336304 C-31.57805321 143.90131235 -31.58217014 142.19926182 -31.58635521 140.49721146 C-31.60540818 132.49831134 -31.61963746 124.49942044 -31.62796718 116.50050199 C-31.63773222 107.27607098 -31.66403202 98.0518804 -31.70446807 88.82753408 C-31.73466727 81.69278271 -31.74943976 74.5581001 -31.75274819 67.42328608 C-31.75509488 63.164573 -31.76400504 58.90611673 -31.78920937 54.64747238 C-31.81256103 50.63696916 -31.81669507 46.62689052 -31.80644798 42.61633682 C-31.80595418 41.14944798 -31.81222846 39.68253774 -31.82600403 38.2157135 C-31.89877113 30.00370961 -31.57444571 23.42980222 -27.33572388 16.26742554 C-26.66670044 15.07053101 -26.66670044 15.07053101 -25.98416138 13.84945679 C-19.93899374 5.44926986 -10.37493122 0.03134506 0 0 Z M-14.21072388 17.51742554 C-14.74439575 18.05883179 -15.27806763 18.60023804 -15.82791138 19.15805054 C-21.10626509 26.54227594 -20.77115987 33.71008777 -20.73977661 42.50521851 C-20.74548509 43.94976325 -20.75245119 45.39430349 -20.76057434 46.83883667 C-20.7784698 50.74805811 -20.77734405 54.65705463 -20.77163196 58.56630468 C-20.76853438 61.83651589 -20.77463899 65.10668425 -20.7806707 68.37688935 C-20.79470291 76.09580899 -20.79316597 83.81461792 -20.7817688 91.53353882 C-20.77029299 99.4810421 -20.78435704 107.42820771 -20.81116527 115.3756665 C-20.83336121 122.2132831 -20.83995078 129.05079401 -20.83408886 135.88844407 C-20.83072686 139.96598341 -20.83308349 144.04330643 -20.85033989 148.12081528 C-20.86586894 151.95741471 -20.86178818 155.79351625 -20.84303474 159.63009644 C-20.83936503 161.03247104 -20.84240989 162.43488303 -20.85292053 163.83722305 C-20.91599053 172.9530154 -20.32040333 180.34614102 -14.44119263 187.60726929 C-13.4917981 188.39810913 -13.4917981 188.39810913 -12.52322388 189.20492554 C-11.89802856 189.75019897 -11.27283325 190.29547241 -10.62869263 190.85726929 C-3.46932002 195.26022246 4.51641257 194.55735685 12.64254761 194.54208374 C14.05915596 194.54643583 15.47576196 194.55162064 16.8923645 194.55757141 C20.72503625 194.57091857 24.55760912 194.57154492 28.39029956 194.56900811 C31.59597818 194.56793558 34.80163703 194.57282892 38.0073114 194.57761353 C45.57275035 194.5886937 53.13813964 194.58915439 60.70358276 194.58309937 C68.4954068 194.57705885 76.28705029 194.58937593 84.07884353 194.61066943 C90.78140136 194.62830939 97.48390184 194.63428306 104.18648201 194.63103169 C108.18403256 194.62922265 112.18145427 194.63181707 116.17898369 194.64574623 C119.9391704 194.65835921 123.69907642 194.65634795 127.45925903 194.64333534 C129.48777504 194.63985799 131.51629977 194.65112163 133.54478455 194.66290283 C142.15552269 194.61343379 149.26707677 193.96308045 155.97677612 188.01742554 C156.61228394 187.47601929 157.24779175 186.93461304 157.90255737 186.37680054 C163.75560369 179.36871847 163.09911848 171.62079801 163.06832886 162.92196655 C163.07403718 161.46594724 163.08100323 160.0099324 163.08912659 158.55392456 C163.10702207 154.61378003 163.10589648 150.67385865 163.1001842 146.73368573 C163.09708713 143.4385271 163.10319055 140.143411 163.10922295 136.84825844 C163.12325468 129.07184758 163.12171815 121.29554662 163.11032104 113.51913452 C163.09884067 105.50912831 163.11291708 97.49945695 163.13971752 89.48949486 C163.16190164 82.60008982 163.16850582 75.71078968 163.16264111 68.82135147 C163.15927685 64.71198659 163.16165109 60.60283634 163.17889214 56.49350166 C163.19440266 52.62817928 163.19036077 48.76335153 163.17158699 44.8980484 C163.16791242 43.48396585 163.17097649 42.06984632 163.18147278 40.65579796 C163.24354239 31.59861628 162.86961981 25.06636645 156.69943237 18.02523804 C156.04845581 17.48640991 155.39747925 16.94758179 154.72677612 16.39242554 C154.07837769 15.83812866 153.42997925 15.28383179 152.76193237 14.71273804 C148.45406042 11.74455811 144.72887631 11.01669998 139.5428772 11.00672913 C138.31212967 10.99964432 137.08138214 10.99255951 135.81333923 10.98526001 C134.45733606 10.98755365 133.10133323 10.99006333 131.74533081 10.99276733 C130.31093582 10.98841793 128.87654316 10.98323402 127.44215393 10.97727966 C123.55144771 10.96389964 119.66083869 10.96331012 115.77011395 10.96584296 C112.51740879 10.96691384 109.26472321 10.96202607 106.01202226 10.95723754 C98.33342919 10.94614475 90.65488504 10.94570297 82.97628784 10.95175171 C75.06864675 10.95778543 67.16118387 10.94549532 59.25357318 10.92418164 C52.45422573 10.90653245 45.65493481 10.9005697 38.85556531 10.90381938 C34.79926793 10.90562788 30.74309753 10.90304002 26.68682098 10.88910484 C22.86838411 10.87647782 19.05022345 10.87851631 15.23179054 10.89151573 C13.83586596 10.8938709 12.43992164 10.89118508 11.0440197 10.88289261 C-2.74070321 10.70765482 -2.74070321 10.70765482 -14.21072388 17.51742554 Z " fill="#161515" transform="translate(85.33572387695313,53.732574462890625)"/>
<path d="M0 0 C7.70729664 5.26269154 12.10444159 11.14564816 15 20 C15.64612984 24.95505876 15.60926466 29.82979305 15.5234375 34.8203125 C15.51663169 36.2146623 15.51191939 37.60902372 15.50918579 39.00338745 C15.49590108 42.63651924 15.45177542 46.26864537 15.40161133 49.90142822 C15.36593222 52.88267944 15.35308268 55.86383536 15.34119225 58.84526253 C15.32645519 62.39950787 15.30124628 65.95364814 15.2734375 69.5078125 C15.26852673 70.18607212 15.26361595 70.86433174 15.25855637 71.56314468 C15.24235793 73.46809743 15.2178339 75.37297398 15.19287109 77.27783203 C15.18001068 78.3616214 15.16715027 79.44541077 15.15390015 80.56204224 C15 83 15 83 14 84 C12.29227642 84.08713831 10.58101351 84.10700007 8.87109375 84.09765625 C7.31938477 84.09282227 7.31938477 84.09282227 5.73632812 84.08789062 C4.64771484 84.07951172 3.55910156 84.07113281 2.4375 84.0625 C0.7987793 84.05573242 0.7987793 84.05573242 -0.87304688 84.04882812 C-3.58208495 84.03699826 -6.29101599 84.02051543 -9 84 C-10.22350541 81.55298918 -10.13099823 79.95374005 -10.1418457 77.21826172 C-10.14888016 76.22317596 -10.15591461 75.22809021 -10.16316223 74.20285034 C-10.16732651 73.1227066 -10.17149078 72.04256287 -10.17578125 70.9296875 C-10.1989893 68.64842837 -10.22310703 66.36717835 -10.24804688 64.0859375 C-10.28309582 60.48496499 -10.31246514 56.88432506 -10.32592773 53.28320312 C-10.34145519 49.8107854 -10.38170911 46.33934527 -10.42578125 42.8671875 C-10.42387283 41.79918915 -10.42196442 40.7311908 -10.41999817 39.63082886 C-10.54001779 32.25103315 -11.52621468 26.3685191 -17.0625 21 C-22.07187538 19.29468072 -28.04310761 18.65011434 -32.9765625 20.90234375 C-34.36831412 21.86560041 -35.69150944 22.92636672 -37 24 C-37.66 24 -38.32 24 -39 24 C-40.8021635 28.44533664 -42.12122578 32.07920456 -42.17358398 36.89868164 C-42.18707382 37.89303726 -42.20056366 38.88739288 -42.21446228 39.91188049 C-42.22490067 40.98381149 -42.23533905 42.05574249 -42.24609375 43.16015625 C-42.27901632 45.41992598 -42.31222822 47.67969151 -42.34570312 49.93945312 C-42.3932401 53.5101446 -42.4377006 57.08081715 -42.47680664 60.65161133 C-42.51636925 64.0921365 -42.56793527 67.53231815 -42.62109375 70.97265625 C-42.6295079 72.04661148 -42.63792206 73.12056671 -42.64659119 74.22706604 C-42.66323318 75.2182695 -42.67987518 76.20947296 -42.69702148 77.23071289 C-42.70732895 78.10546768 -42.71763641 78.98022247 -42.72825623 79.88148499 C-43 82 -43 82 -45 84 C-47.21484375 84.25878906 -47.21484375 84.25878906 -49.9375 84.265625 C-50.91460937 84.26820313 -51.89171875 84.27078125 -52.8984375 84.2734375 C-53.92195312 84.26570313 -54.94546875 84.25796875 -56 84.25 C-57.02351562 84.25773437 -58.04703125 84.26546875 -59.1015625 84.2734375 C-60.07867187 84.27085937 -61.05578125 84.26828125 -62.0625 84.265625 C-62.96097656 84.26336914 -63.85945312 84.26111328 -64.78515625 84.25878906 C-67 84 -67 84 -69 82 C-69.19315817 79.38525377 -69.26230952 76.87688087 -69.24291992 74.26147461 C-69.24481827 73.46299606 -69.24671661 72.66451752 -69.24867249 71.84184265 C-69.25238561 69.19524402 -69.24166936 66.5489181 -69.23046875 63.90234375 C-69.22927724 62.0691379 -69.22882373 60.23593144 -69.2290802 58.40272522 C-69.22751446 54.55840236 -69.21921725 50.71417251 -69.20581055 46.86987305 C-69.18880862 41.93086463 -69.18499649 36.99195841 -69.18575573 32.05292416 C-69.18548442 28.26724768 -69.18000976 24.48159375 -69.17275429 20.69592476 C-69.16956212 18.87417331 -69.16759894 17.0524193 -69.16686058 15.23066521 C-69.16470347 12.69010903 -69.15597333 10.14966346 -69.14526367 7.60913086 C-69.14571686 6.84910767 -69.14617004 6.08908447 -69.14663696 5.30603027 C-69.11447477 0.11447477 -69.11447477 0.11447477 -68 -1 C-66.23140807 -1.09946453 -64.45888549 -1.13080217 -62.6875 -1.1328125 C-61.61242187 -1.13410156 -60.53734375 -1.13539063 -59.4296875 -1.13671875 C-58.29789063 -1.13285156 -57.16609375 -1.12898437 -56 -1.125 C-54.86820313 -1.12886719 -53.73640625 -1.13273438 -52.5703125 -1.13671875 C-51.49523437 -1.13542969 -50.42015625 -1.13414062 -49.3125 -1.1328125 C-47.82169922 -1.13112061 -47.82169922 -1.13112061 -46.30078125 -1.12939453 C-44 -1 -44 -1 -43 0 C-42.54540142 2.65463121 -42.29756762 5.32189138 -42 8 C-41.45472656 7.54109375 -40.90945312 7.0821875 -40.34765625 6.609375 C-28.63952638 -2.91724007 -14.41246687 -7.40739266 0 0 Z " fill="#FA6935" transform="translate(205,131)"/>
<path d="M0 0 C1.02996094 -0.00128906 2.05992188 -0.00257813 3.12109375 -0.00390625 C4.74724609 0.00189453 4.74724609 0.00189453 6.40625 0.0078125 C7.49035156 0.00394531 8.57445313 0.00007812 9.69140625 -0.00390625 C10.72136719 -0.00261719 11.75132813 -0.00132812 12.8125 0 C14.24045898 0.00169189 14.24045898 0.00169189 15.69726562 0.00341797 C17.90625 0.1328125 17.90625 0.1328125 18.90625 1.1328125 C19.00664611 3.71382006 19.04242269 6.26809147 19.03564453 8.84960938 C19.03739685 9.65769547 19.03914917 10.46578156 19.04095459 11.2983551 C19.04537376 13.9827791 19.04243489 16.66713778 19.0390625 19.3515625 C19.03973552 21.20861829 19.04070553 23.065674 19.04196167 24.92272949 C19.04343873 28.82007687 19.04128382 32.71740137 19.03662109 36.61474609 C19.0309238 41.6221575 19.03420276 46.62951531 19.04019356 51.63692474 C19.04379895 55.47320971 19.04266069 59.30948187 19.04006577 63.14576721 C19.03939644 64.99264024 19.04022513 66.83951442 19.04254532 68.68638611 C19.04507149 71.26296082 19.04123177 73.83944751 19.03564453 76.41601562 C19.03766876 77.1869606 19.03969299 77.95790558 19.04177856 78.75221252 C19.02051255 84.01854995 19.02051255 84.01854995 17.90625 85.1328125 C14.26725825 85.38437519 10.61541327 85.31803476 6.96875 85.3203125 C5.94072266 85.33255859 4.91269531 85.34480469 3.85351562 85.35742188 C2.87189453 85.35935547 1.89027344 85.36128906 0.87890625 85.36328125 C-0.47835571 85.36944458 -0.47835571 85.36944458 -1.86303711 85.37573242 C-4.09375 85.1328125 -4.09375 85.1328125 -6.09375 83.1328125 C-6.28690817 80.51806627 -6.35605952 78.00969337 -6.33666992 75.39428711 C-6.33856827 74.59580856 -6.34046661 73.79733002 -6.34242249 72.97465515 C-6.34613561 70.32805652 -6.33541936 67.6817306 -6.32421875 65.03515625 C-6.32302724 63.2019504 -6.32257373 61.36874394 -6.3228302 59.53553772 C-6.32126446 55.69121486 -6.31296725 51.84698501 -6.29956055 48.00268555 C-6.28255862 43.06367713 -6.27874649 38.12477091 -6.27950573 33.18573666 C-6.27923442 29.40006018 -6.27375976 25.61440625 -6.26650429 21.82873726 C-6.26331212 20.00698581 -6.26134894 18.1852318 -6.26061058 16.36347771 C-6.25845347 13.82292153 -6.24972333 11.28247596 -6.23901367 8.74194336 C-6.23946686 7.98192017 -6.23992004 7.22189697 -6.24038696 6.43884277 C-6.20287989 0.38452805 -5.98087281 0.00708634 0 0 Z " fill="#FA6A36" transform="translate(99.09375,129.8671875)"/>
<path d="M0 0 C3.34437254 3.02586087 6.1536098 5.72674044 6.97265625 10.328125 C7.22670041 16.11591371 5.46836275 20.1629647 1.75 24.625 C-1.62495614 27.40437564 -4.36874437 28.24209831 -8.6875 28.8125 C-13.54556873 28.23611896 -16.67192268 26.52761988 -20.375 23.375 C-23.3588498 19.27220653 -23.90130238 15.51243071 -23.734375 10.5546875 C-22.98280439 5.99624836 -19.87500041 2.26630469 -16.375 -0.625 C-10.79259548 -2.48580151 -5.32368031 -2.56325348 0 0 Z " fill="#FA6935" transform="translate(114.375,90.625)"/>
</svg>
