<?xml version="1.0" encoding="UTF-8"?>
<svg version="1.1" xmlns="http://www.w3.org/2000/svg" width="313" height="313">
<path d="M0 0 C103.29 0 206.58 0 313 0 C313 103.29 313 206.58 313 313 C209.71 313 106.42 313 0 313 C0 209.71 0 106.42 0 0 Z " fill="#FCFCFC" transform="translate(0,0)"/>
<path d="M0 0 C0.99 0.99 0.99 0.99 2 2 C1.8125 5.5 1.8125 5.5 1 9 C-2.76264884 11.50843256 -4.53335884 11.08551792 -9 10.875 C-22.95772796 10.60809937 -30.03425728 16.34030286 -39.67599487 25.61160278 C-43.43783283 29.25377395 -47.16178011 32.93282367 -50.86987305 36.62963867 C-52.81962157 38.56958577 -54.77980468 40.49858943 -56.74023438 42.42773438 C-58.00065635 43.68163225 -59.26044451 44.93616762 -60.51953125 46.19140625 C-61.09669388 46.75622208 -61.67385651 47.3210379 -62.26850891 47.90296936 C-70.04188477 55.71891988 -74.90096405 64.71505223 -75.4375 75.875 C-75.01250892 87.15497168 -70.11542467 95.97886602 -62.2265625 103.74609375 C-55.25772508 109.6416714 -45.29959685 112.82140642 -36.1796875 112.3203125 C-22.81837446 110.35682205 -15.09865129 103.43555235 -6.05078125 94.05859375 C-3.52886004 91.46905753 -0.86399521 89.21150239 2 87 C3.68997323 85.35697047 5.35216394 83.68528688 7 82 C7.69480469 81.33871094 8.38960938 80.67742187 9.10546875 79.99609375 C18.86325105 70.59789472 24.13790344 62.49407627 24.4375 48.8125 C24.45780273 47.60303711 24.45780273 47.60303711 24.47851562 46.36914062 C24.50494141 45.59376953 24.53136719 44.81839844 24.55859375 44.01953125 C24.57204834 43.31932861 24.58550293 42.61912598 24.59936523 41.89770508 C25.1213003 39.42543129 26.01483283 38.52617573 28 37 C31 36.5625 31 36.5625 34 37 C36.03265224 38.78395126 36.88721531 40.26818322 37.30029297 42.94848633 C37.44272908 45.34929139 37.46679939 47.72012487 37.4375 50.125 C37.42992676 50.98013184 37.42235352 51.83526367 37.41455078 52.71630859 C37.03382826 67.31437717 28.91963376 77.55456241 18.890625 87.54296875 C18.1237738 88.3150618 17.35692261 89.08715485 16.5668335 89.88264465 C14.95359563 91.50226507 13.33652982 93.11808088 11.71582031 94.73022461 C9.25834638 97.17918254 6.82013017 99.64623452 4.3828125 102.11523438 C2.80321519 103.69644401 1.22252148 105.27655928 -0.359375 106.85546875 C-1.07639587 107.5837236 -1.79341675 108.31197845 -2.53216553 109.06230164 C-12.34785567 118.74656566 -24.08980082 125.08627368 -38.0625 125.4375 C-52.29754362 124.96769658 -64.09090236 119.72309422 -74.3828125 109.94140625 C-83.61247902 99.56836314 -88.66073247 87.1470246 -88.28515625 73.234375 C-86.37049012 51.51733999 -70.35242982 38.14567262 -55.90209961 23.60693359 C-54.58610088 22.27932359 -53.27460526 20.94723552 -51.9675293 19.61083984 C-38.96874636 6.32247605 -20.03065016 -9.87573867 0 0 Z " fill="#2C2C2C" transform="translate(132,136)"/>
<path d="M0 0 C10.71745392 8.02022802 17.85130353 18.55753432 21.03125 31.56640625 C22.46468738 46.18746749 19.79598288 59.54368596 10.36703491 71.19692993 C8.15891604 73.57622327 5.89273026 75.87264089 3.578125 78.1484375 C2.74468567 78.98428879 1.91124634 79.82014008 1.05255127 80.68132019 C-0.69963845 82.43253718 -2.45797731 84.17762151 -4.22216797 85.91674805 C-6.90103291 88.56125607 -9.55501566 91.22898681 -12.20703125 93.90039062 C-13.92304914 95.60950992 -15.64045186 97.31724015 -17.359375 99.0234375 C-18.53333832 100.20484062 -18.53333832 100.20484062 -19.73101807 101.41011047 C-31.41813403 112.85391893 -43.9837211 118.20466601 -60.30859375 118.1875 C-63.89074179 117.7235345 -65.82145814 116.96337637 -68.65625 114.75390625 C-69.71875 111.81640625 -69.71875 111.81640625 -69.65625 108.75390625 C-68.08984375 106.5625 -68.08984375 106.5625 -65.65625 104.75390625 C-62.40625 104.50390625 -62.40625 104.50390625 -58.65625 104.75390625 C-46.16336475 105.12281149 -38.02488671 101.26394427 -28.9921875 92.9140625 C-27.54164598 91.53281436 -26.09712735 90.1452328 -24.65625 88.75390625 C-24.18352661 88.29860535 -23.71080322 87.84330444 -23.22375488 87.37420654 C-19.32110223 83.6102432 -15.45141413 79.81391325 -11.59375 76.00390625 C-11.04087311 75.46101959 -10.48799622 74.91813293 -9.91836548 74.35879517 C0.35596014 64.2370746 8.11843796 54.89482588 8.84375 39.87890625 C8.50796577 29.40243825 3.9160883 21.30696565 -3.2578125 13.8828125 C-11.16249189 6.86644398 -20.05490394 4.23187933 -30.53125 4.44140625 C-43.11019168 5.69930042 -51.6839526 13.46866894 -60.26171875 22.05859375 C-60.94881424 22.74140411 -61.63590973 23.42421448 -62.34382629 24.12771606 C-63.7840758 25.56226261 -65.22176637 26.9993825 -66.65698242 28.43896484 C-68.83972855 30.62487896 -71.03549595 32.79709866 -73.23242188 34.96875 C-74.63883128 36.37288663 -76.0444571 37.77780864 -77.44921875 39.18359375 C-78.09827682 39.82344208 -78.7473349 40.46329041 -79.4160614 41.12252808 C-88.68266647 50.48306811 -91.74899381 59.04631163 -92.1171875 72.1171875 C-92.65625 74.75390625 -92.65625 74.75390625 -94.5 76.6171875 C-97.5710384 78.23615883 -99.39574123 77.746235 -102.65625 76.75390625 C-106.11586003 71.56449121 -105.39750684 64.81459229 -104.65625 58.75390625 C-100.59962013 43.43288449 -89.08212598 32.67217903 -78.20605469 21.85766602 C-75.91327766 19.5734078 -73.63981412 17.27108319 -71.3671875 14.96679688 C-51.231543 -5.26883159 -26.95648422 -17.46045 0 0 Z " fill="#2C2C2C" transform="translate(238.65625,53.24609375)"/>
<path d="M0 0 C2.77835083 0.97952271 2.77835083 0.97952271 4.77835083 3.97952271 C5.21585083 6.29202271 5.21585083 6.29202271 4.77835083 8.97952271 C2.46585083 12.10452271 2.46585083 12.10452271 -0.22164917 14.97952271 C-0.77852417 15.59827271 -1.33539917 16.21702271 -1.90914917 16.85452271 C-3.22164917 17.97952271 -3.22164917 17.97952271 -5.22164917 17.97952271 C-5.71664917 19.46452271 -5.71664917 19.46452271 -6.22164917 20.97952271 C-6.88164917 20.97952271 -7.54164917 20.97952271 -8.22164917 20.97952271 C-8.22164917 21.63952271 -8.22164917 22.29952271 -8.22164917 22.97952271 C-9.59664917 24.60452271 -9.59664917 24.60452271 -11.22164917 25.97952271 C-11.88164917 25.97952271 -12.54164917 25.97952271 -13.22164917 25.97952271 C-13.71664917 27.46452271 -13.71664917 27.46452271 -14.22164917 28.97952271 C-14.88164917 28.97952271 -15.54164917 28.97952271 -16.22164917 28.97952271 C-16.71664917 30.46452271 -16.71664917 30.46452271 -17.22164917 31.97952271 C-17.88164917 31.97952271 -18.54164917 31.97952271 -19.22164917 31.97952271 C-19.55164917 32.96952271 -19.88164917 33.95952271 -20.22164917 34.97952271 C-20.88164917 34.97952271 -21.54164917 34.97952271 -22.22164917 34.97952271 C-22.22164917 35.63952271 -22.22164917 36.29952271 -22.22164917 36.97952271 C-22.88164917 36.97952271 -23.54164917 36.97952271 -24.22164917 36.97952271 C-24.55164917 37.96952271 -24.88164917 38.95952271 -25.22164917 39.97952271 C-25.88164917 39.97952271 -26.54164917 39.97952271 -27.22164917 39.97952271 C-27.55164917 40.96952271 -27.88164917 41.95952271 -28.22164917 42.97952271 C-28.88164917 42.97952271 -29.54164917 42.97952271 -30.22164917 42.97952271 C-30.49331909 43.57426392 -30.76498901 44.16900513 -31.04489136 44.7817688 C-32.92077828 48.2852406 -35.68295326 50.8095881 -38.47164917 53.60452271 C-39.31276245 54.48237427 -39.31276245 54.48237427 -40.17086792 55.37796021 C-43.57407791 58.80474902 -46.30931563 61.08194335 -51.22164917 61.97952271 C-54.09664917 60.41702271 -54.09664917 60.41702271 -56.22164917 57.97952271 C-56.65258789 55.66772461 -56.65258789 55.66772461 -56.22164917 52.97952271 C-54.24993896 50.35943604 -54.24993896 50.35943604 -51.45162964 47.53079224 C-50.94432816 47.01151657 -50.43702667 46.49224091 -49.91435242 45.95722961 C-48.23518227 44.2458794 -46.53815532 42.5536639 -44.83883667 40.86233521 C-43.66434715 39.67939835 -42.49045587 38.49586724 -41.31713867 37.31176758 C-38.85553524 34.83376848 -36.38459793 32.36555143 -33.90719604 29.90335083 C-30.73227702 26.74572828 -27.58542031 23.56169915 -24.44546318 20.36935616 C-22.02816602 17.91899585 -19.59484813 15.48505562 -17.15655899 13.05559921 C-15.98932619 11.88800619 -14.82755748 10.7149243 -13.67141342 9.53635025 C-12.05316594 7.89090779 -10.4142328 6.26930027 -8.76803589 4.65188599 C-7.83982025 3.72320709 -6.91160461 2.7945282 -5.95526123 1.83770752 C-3.22164917 -0.02047729 -3.22164917 -0.02047729 0 0 Z " fill="#F0622B" transform="translate(177.22164916992188,121.02047729492188)"/>
</svg>
