<?xml version="1.0" encoding="UTF-8"?>
<svg version="1.1" xmlns="http://www.w3.org/2000/svg" width="313" height="313">
<path d="M0 0 C103.29 0 206.58 0 313 0 C313 103.29 313 206.58 313 313 C209.71 313 106.42 313 0 313 C0 209.71 0 106.42 0 0 Z " fill="#FEFEFE" transform="translate(0,0)"/>
<path d="M0 0 C2.0625 1.625 2.0625 1.625 3.0625 3.625 C4.05927987 24.98780493 -10.61116365 48.72575712 -23.9375 64.625 C-29.23689082 70.32858164 -34.60991615 73.99192022 -41.9375 76.625 C-39.2975 76.625 -36.6575 76.625 -33.9375 76.625 C-32.8403333 79.92875896 -32.82240947 81.34549442 -34.16796875 84.61328125 C-42.57892272 98.90015116 -52.44573659 111.68503989 -63.9375 123.625 C-64.58847656 124.33914062 -65.23945313 125.05328125 -65.91015625 125.7890625 C-77.45268956 138.09129545 -94.73891478 149.37986748 -111.83007812 150.87866211 C-114.83006929 150.95376038 -117.81232799 150.93717973 -120.8125 150.875 C-122.34003906 150.86726563 -122.34003906 150.86726563 -123.8984375 150.859375 C-131.9674469 150.77443806 -131.9674469 150.77443806 -135.9375 149.625 C-138.00737512 153.01644037 -140.07000833 156.412173 -142.12646484 159.81176758 C-143.1652758 161.52582956 -144.20953338 163.23658682 -145.25390625 164.94726562 C-148.93597173 171.04233518 -152.22712266 177.03766539 -154.9375 183.625 C-154.18726563 183.21507812 -153.43703125 182.80515625 -152.6640625 182.3828125 C-151.64054687 181.84398437 -150.61703125 181.30515625 -149.5625 180.75 C-148.56476563 180.21632812 -147.56703125 179.68265625 -146.5390625 179.1328125 C-138.811769 175.89774168 -130.95472566 175.3260787 -122.65771484 175.33447266 C-121.68399429 175.32775543 -120.71027374 175.32103821 -119.70704651 175.31411743 C-116.52079022 175.29527527 -113.33474586 175.29122113 -110.1484375 175.2890625 C-107.9174491 175.28262814 -105.68646153 175.27589931 -103.45547485 175.26889038 C-98.79386436 175.25695442 -94.1323278 175.25320608 -89.47070312 175.25439453 C-83.50784786 175.25459823 -77.54546642 175.22722633 -71.58272362 175.19285011 C-66.9809655 175.17058651 -62.37932187 175.16655673 -57.77751541 175.16761398 C-55.57915225 175.16525992 -53.38078584 175.1564474 -51.18247604 175.14094925 C-48.10747904 175.12128796 -45.03351071 175.12712687 -41.95849609 175.13916016 C-41.05854416 175.12792114 -40.15859222 175.11668213 -39.23136902 175.10510254 C-33.34078316 175.16348798 -28.8511421 176.27781598 -23.9375 179.625 C-19.50545726 184.3979691 -18.51992254 187.56704986 -18.59375 193.953125 C-19.32677679 199.6507423 -22.51712957 203.27226625 -26.5625 207.125 C-30.06670737 208.6824255 -31.88640363 208.78543302 -35.6484375 208.71875 C-36.6389209 208.70521484 -37.6294043 208.69167969 -38.64990234 208.67773438 C-39.78226318 208.65163086 -39.78226318 208.65163086 -40.9375 208.625 C-41.07325439 209.39054199 -41.20900879 210.15608398 -41.34887695 210.94482422 C-41.97654321 214.46432397 -42.613209 217.98214024 -43.25 221.5 C-43.46333984 222.70398438 -43.67667969 223.90796875 -43.89648438 225.1484375 C-47.59095859 245.440475 -47.59095859 245.440475 -52.9375 250.625 C-56.0629523 252.53987589 -58.43795924 252.8818594 -62.07893372 252.90588379 C-63.63704018 252.92301422 -63.63704018 252.92301422 -65.22662354 252.94049072 C-66.36073669 252.94272644 -67.49484985 252.94496216 -68.66333008 252.94726562 C-69.86211288 252.95719543 -71.06089569 252.96712524 -72.29600525 252.97735596 C-75.58128068 253.00154886 -78.86641388 253.01648289 -82.15176225 253.02537727 C-84.20618864 253.03124759 -86.26059293 253.03945884 -88.31500816 253.04838562 C-94.7484024 253.07572091 -101.18174587 253.09506138 -107.61519414 253.1027894 C-115.03152123 253.1117481 -122.44711056 253.14683613 -129.86321336 253.20479059 C-135.60264929 253.24807928 -141.34187806 253.26820082 -147.08147544 253.27087164 C-150.50639124 253.27296389 -153.93061288 253.28469308 -157.35535622 253.32051086 C-161.17863461 253.35462789 -165.00011741 253.35087423 -168.82348633 253.33789062 C-169.95152679 253.35632019 -171.07956726 253.37474976 -172.24179077 253.39373779 C-178.50895121 253.32707838 -182.17650828 252.65012475 -186.73447704 248.20540619 C-189.49567399 244.5780334 -189.0400246 240.80018157 -189 236.4375 C-188.99097656 235.16519531 -188.98195313 233.89289063 -188.97265625 232.58203125 C-188.96105469 231.60621094 -188.94945312 230.63039063 -188.9375 229.625 C-187.2875 229.955 -185.6375 230.285 -183.9375 230.625 C-183.87691406 231.45644531 -183.81632812 232.28789062 -183.75390625 233.14453125 C-183.67011719 234.23121094 -183.58632812 235.31789063 -183.5 236.4375 C-183.41878906 237.51644531 -183.33757812 238.59539062 -183.25390625 239.70703125 C-183.03537539 242.68489905 -183.03537539 242.68489905 -181.9375 245.625 C-179.0102099 246.60076337 -177.10460382 246.75949211 -174.05471802 246.77890015 C-172.544823 246.79180084 -172.544823 246.79180084 -171.00442505 246.80496216 C-169.90097748 246.80922211 -168.79752991 246.81348206 -167.66064453 246.81787109 C-166.49780945 246.82604858 -165.33497437 246.83422607 -164.13690186 246.84265137 C-160.28137734 246.86750442 -156.42588958 246.88401909 -152.5703125 246.8984375 C-150.59793924 246.90642302 -150.59793924 246.90642302 -148.58572006 246.91456985 C-143.06115471 246.93619003 -137.53659224 246.95492718 -132.01199532 246.96619225 C-124.09803865 246.98243685 -116.18457248 247.01563593 -108.27080071 247.07259309 C-102.7038291 247.11129302 -97.13698869 247.13082478 -91.56988609 247.13611281 C-88.24565877 247.13976559 -84.92207526 247.15427603 -81.59796524 247.18421555 C-77.88930905 247.21571925 -74.18189856 247.21592551 -70.47314453 247.20849609 C-69.37374542 247.22490143 -68.27434631 247.24130676 -67.14163208 247.25820923 C-65.62327759 247.24573151 -65.62327759 247.24573151 -64.07424927 247.23300171 C-63.19783342 247.23631186 -62.32141758 247.239622 -61.41844368 247.24303246 C-58.09525513 246.64144265 -58.09525513 246.64144265 -53.9375 241.625 C-51.6275 230.735 -49.3175 219.845 -46.9375 208.625 C-69.3775 208.625 -91.8175 208.625 -114.9375 208.625 C-115.4325 206.15 -115.4325 206.15 -115.9375 203.625 C-113.95186118 201.63936118 -110.00237878 202.4709904 -107.28417969 202.46728516 C-106.08168831 202.45966408 -106.08168831 202.45966408 -104.85490417 202.45188904 C-103.10772558 202.44116094 -101.36053303 202.4325504 -99.61333466 202.42576981 C-96.84780114 202.4140133 -94.08242611 202.39456783 -91.31695557 202.37265015 C-83.45175454 202.31093315 -75.58656764 202.25701329 -67.72119141 202.22363281 C-62.91532968 202.20268421 -58.10975307 202.16737473 -53.30405426 202.12287521 C-51.47168587 202.10871119 -49.639267 202.09999187 -47.80684662 202.09682083 C-45.2403942 202.09191079 -42.67469729 202.06874937 -40.10839844 202.04150391 C-39.35183456 202.04451004 -38.59527069 202.04751617 -37.81578064 202.0506134 C-32.93261201 201.97364736 -29.45548926 201.14298926 -25.9375 197.625 C-25.62118041 195.16942328 -25.62118041 195.16942328 -25.5625 192.3125 C-25.48902344 190.86423828 -25.48902344 190.86423828 -25.4140625 189.38671875 C-25.71371227 186.50171275 -25.71371227 186.50171275 -27.86320496 184.48275757 C-32.17309464 181.8783458 -35.70381933 182.07833558 -40.6496582 182.13916016 C-41.62264862 182.13536346 -42.59563904 182.13156677 -43.59811401 182.12765503 C-46.81183198 182.12025128 -50.02464369 182.14163477 -53.23828125 182.1640625 C-55.47641392 182.16644772 -57.71454861 182.16735208 -59.9526825 182.1668396 C-64.64428235 182.16996762 -69.33557664 182.1865299 -74.02709961 182.21337891 C-80.02922226 182.24729953 -86.03100825 182.25500904 -92.03321552 182.25348854 C-96.65644013 182.25403361 -101.27959172 182.26502377 -105.90279198 182.27949142 C-108.11508825 182.28583954 -110.32739277 182.28979365 -112.53969765 182.29127884 C-115.63899298 182.29563629 -118.7379386 182.31319158 -121.8371582 182.33447266 C-123.19886894 182.3331131 -123.19886894 182.3331131 -124.58808899 182.33172607 C-136.59030411 182.45166326 -148.49462126 186.55669227 -157.37109375 194.8984375 C-161.74236174 199.71664312 -165.13250707 205.09626763 -168.23828125 210.79296875 C-168.63418457 211.51758301 -169.03008789 212.24219727 -169.43798828 212.98876953 C-170.21972113 214.43679216 -170.98803992 215.89214984 -171.74169922 217.35498047 C-174.46381349 222.44436416 -174.46381349 222.44436416 -176.94458008 223.39038086 C-178.9375 223.625 -178.9375 223.625 -180.9375 222.625 C-180.45712949 216.15108355 -178.7610713 211.21865712 -176 205.375 C-175.59740967 204.50657471 -175.19481934 203.63814941 -174.7800293 202.7434082 C-173.5133705 200.03032729 -172.22728619 197.32715131 -170.9375 194.625 C-170.54884766 193.7985498 -170.16019531 192.97209961 -169.75976562 192.12060547 C-163.95868956 179.83148381 -157.28457823 168.19063922 -150.13671875 156.63671875 C-149.59700439 155.76321777 -149.05729004 154.8897168 -148.5012207 153.98974609 C-147.1223268 151.90450544 -145.64530535 150.10030441 -144.0234375 148.20703125 C-140.63113968 143.54700923 -141.58390063 138.11718455 -141.875 132.625 C-142.14234871 122.45322848 -141.5082737 114.24494624 -137.9375 104.625 C-137.4115625 103.11873047 -137.4115625 103.11873047 -136.875 101.58203125 C-123.34784599 66.02628268 -90.23306517 36.03160535 -57.9375 17.625 C-57.31858887 17.26841309 -56.69967773 16.91182617 -56.06201172 16.54443359 C-47.61615805 11.72032257 -39.02217251 7.66974363 -29.9375 4.1875 C-28.64779297 3.6925 -28.64779297 3.6925 -27.33203125 3.1875 C-8.27564192 -3.87370473 -8.27564192 -3.87370473 0 0 Z " fill="#EE6A3A" transform="translate(261.9375,28.375)"/>
<path d="M0 0 C2.0625 1.625 2.0625 1.625 3.0625 3.625 C4.05927987 24.98780493 -10.61116365 48.72575712 -23.9375 64.625 C-29.23689082 70.32858164 -34.60991615 73.99192022 -41.9375 76.625 C-39.2975 76.625 -36.6575 76.625 -33.9375 76.625 C-32.8403333 79.92875896 -32.82240947 81.34549442 -34.16796875 84.61328125 C-42.57892272 98.90015116 -52.44573659 111.68503989 -63.9375 123.625 C-64.58847656 124.33914062 -65.23945313 125.05328125 -65.91015625 125.7890625 C-77.45268956 138.09129545 -94.73891478 149.37986748 -111.83007812 150.87866211 C-114.83006929 150.95376038 -117.81232799 150.93717973 -120.8125 150.875 C-122.34003906 150.86726563 -122.34003906 150.86726563 -123.8984375 150.859375 C-131.9674469 150.77443806 -131.9674469 150.77443806 -135.9375 149.625 C-138.00737512 153.01644037 -140.07000833 156.412173 -142.12646484 159.81176758 C-143.1652758 161.52582956 -144.20953338 163.23658682 -145.25390625 164.94726562 C-148.93597173 171.04233518 -152.22712266 177.03766539 -154.9375 183.625 C-154.18726563 183.21507812 -153.43703125 182.80515625 -152.6640625 182.3828125 C-151.64054687 181.84398437 -150.61703125 181.30515625 -149.5625 180.75 C-148.56476563 180.21632812 -147.56703125 179.68265625 -146.5390625 179.1328125 C-138.811769 175.89774168 -130.95472566 175.3260787 -122.65771484 175.33447266 C-121.68399429 175.32775543 -120.71027374 175.32103821 -119.70704651 175.31411743 C-116.52079022 175.29527527 -113.33474586 175.29122113 -110.1484375 175.2890625 C-107.9174491 175.28262814 -105.68646153 175.27589931 -103.45547485 175.26889038 C-98.79386436 175.25695442 -94.1323278 175.25320608 -89.47070312 175.25439453 C-83.50784786 175.25459823 -77.54546642 175.22722633 -71.58272362 175.19285011 C-66.9809655 175.17058651 -62.37932187 175.16655673 -57.77751541 175.16761398 C-55.57915225 175.16525992 -53.38078584 175.1564474 -51.18247604 175.14094925 C-48.10747904 175.12128796 -45.03351071 175.12712687 -41.95849609 175.13916016 C-41.05854416 175.12792114 -40.15859222 175.11668213 -39.23136902 175.10510254 C-33.34078316 175.16348798 -28.8511421 176.27781598 -23.9375 179.625 C-19.50545726 184.3979691 -18.51992254 187.56704986 -18.59375 193.953125 C-19.32677679 199.6507423 -22.51712957 203.27226625 -26.5625 207.125 C-30.06670737 208.6824255 -31.88640363 208.78543302 -35.6484375 208.71875 C-36.6389209 208.70521484 -37.6294043 208.69167969 -38.64990234 208.67773438 C-39.78226318 208.65163086 -39.78226318 208.65163086 -40.9375 208.625 C-41.07325439 209.39054199 -41.20900879 210.15608398 -41.34887695 210.94482422 C-41.97654321 214.46432397 -42.613209 217.98214024 -43.25 221.5 C-43.46333984 222.70398438 -43.67667969 223.90796875 -43.89648438 225.1484375 C-47.59095859 245.440475 -47.59095859 245.440475 -52.9375 250.625 C-56.0629523 252.53987589 -58.43795924 252.8818594 -62.07893372 252.90588379 C-63.63704018 252.92301422 -63.63704018 252.92301422 -65.22662354 252.94049072 C-66.36073669 252.94272644 -67.49484985 252.94496216 -68.66333008 252.94726562 C-69.86211288 252.95719543 -71.06089569 252.96712524 -72.29600525 252.97735596 C-75.58128068 253.00154886 -78.86641388 253.01648289 -82.15176225 253.02537727 C-84.20618864 253.03124759 -86.26059293 253.03945884 -88.31500816 253.04838562 C-94.7484024 253.07572091 -101.18174587 253.09506138 -107.61519414 253.1027894 C-115.03152123 253.1117481 -122.44711056 253.14683613 -129.86321336 253.20479059 C-135.60264929 253.24807928 -141.34187806 253.26820082 -147.08147544 253.27087164 C-150.50639124 253.27296389 -153.93061288 253.28469308 -157.35535622 253.32051086 C-161.17863461 253.35462789 -165.00011741 253.35087423 -168.82348633 253.33789062 C-169.95152679 253.35632019 -171.07956726 253.37474976 -172.24179077 253.39373779 C-178.50895121 253.32707838 -182.17650828 252.65012475 -186.73447704 248.20540619 C-189.49567399 244.5780334 -189.0400246 240.80018157 -189 236.4375 C-188.99097656 235.16519531 -188.98195313 233.89289063 -188.97265625 232.58203125 C-188.96105469 231.60621094 -188.94945312 230.63039063 -188.9375 229.625 C-187.2875 229.955 -185.6375 230.285 -183.9375 230.625 C-183.87691406 231.45644531 -183.81632812 232.28789062 -183.75390625 233.14453125 C-183.67011719 234.23121094 -183.58632812 235.31789063 -183.5 236.4375 C-183.41878906 237.51644531 -183.33757812 238.59539062 -183.25390625 239.70703125 C-183.03537539 242.68489905 -183.03537539 242.68489905 -181.9375 245.625 C-179.0102099 246.60076337 -177.10460382 246.75949211 -174.05471802 246.77890015 C-172.544823 246.79180084 -172.544823 246.79180084 -171.00442505 246.80496216 C-169.90097748 246.80922211 -168.79752991 246.81348206 -167.66064453 246.81787109 C-166.49780945 246.82604858 -165.33497437 246.83422607 -164.13690186 246.84265137 C-160.28137734 246.86750442 -156.42588958 246.88401909 -152.5703125 246.8984375 C-150.59793924 246.90642302 -150.59793924 246.90642302 -148.58572006 246.91456985 C-143.06115471 246.93619003 -137.53659224 246.95492718 -132.01199532 246.96619225 C-124.09803865 246.98243685 -116.18457248 247.01563593 -108.27080071 247.07259309 C-102.7038291 247.11129302 -97.13698869 247.13082478 -91.56988609 247.13611281 C-88.24565877 247.13976559 -84.92207526 247.15427603 -81.59796524 247.18421555 C-77.88930905 247.21571925 -74.18189856 247.21592551 -70.47314453 247.20849609 C-69.37374542 247.22490143 -68.27434631 247.24130676 -67.14163208 247.25820923 C-65.62327759 247.24573151 -65.62327759 247.24573151 -64.07424927 247.23300171 C-63.19783342 247.23631186 -62.32141758 247.239622 -61.41844368 247.24303246 C-58.09525513 246.64144265 -58.09525513 246.64144265 -53.9375 241.625 C-51.6275 230.735 -49.3175 219.845 -46.9375 208.625 C-69.3775 208.625 -91.8175 208.625 -114.9375 208.625 C-115.4325 206.15 -115.4325 206.15 -115.9375 203.625 C-113.95186118 201.63936118 -110.00237878 202.4709904 -107.28417969 202.46728516 C-106.08168831 202.45966408 -106.08168831 202.45966408 -104.85490417 202.45188904 C-103.10772558 202.44116094 -101.36053303 202.4325504 -99.61333466 202.42576981 C-96.84780114 202.4140133 -94.08242611 202.39456783 -91.31695557 202.37265015 C-83.45175454 202.31093315 -75.58656764 202.25701329 -67.72119141 202.22363281 C-62.91532968 202.20268421 -58.10975307 202.16737473 -53.30405426 202.12287521 C-51.47168587 202.10871119 -49.639267 202.09999187 -47.80684662 202.09682083 C-45.2403942 202.09191079 -42.67469729 202.06874937 -40.10839844 202.04150391 C-39.35183456 202.04451004 -38.59527069 202.04751617 -37.81578064 202.0506134 C-32.93261201 201.97364736 -29.45548926 201.14298926 -25.9375 197.625 C-25.62118041 195.16942328 -25.62118041 195.16942328 -25.5625 192.3125 C-25.48902344 190.86423828 -25.48902344 190.86423828 -25.4140625 189.38671875 C-25.71371227 186.50171275 -25.71371227 186.50171275 -27.86320496 184.48275757 C-32.17309464 181.8783458 -35.70381933 182.07833558 -40.6496582 182.13916016 C-41.62264862 182.13536346 -42.59563904 182.13156677 -43.59811401 182.12765503 C-46.81183198 182.12025128 -50.02464369 182.14163477 -53.23828125 182.1640625 C-55.47641392 182.16644772 -57.71454861 182.16735208 -59.9526825 182.1668396 C-64.64428235 182.16996762 -69.33557664 182.1865299 -74.02709961 182.21337891 C-80.02922226 182.24729953 -86.03100825 182.25500904 -92.03321552 182.25348854 C-96.65644013 182.25403361 -101.27959172 182.26502377 -105.90279198 182.27949142 C-108.11508825 182.28583954 -110.32739277 182.28979365 -112.53969765 182.29127884 C-115.63899298 182.29563629 -118.7379386 182.31319158 -121.8371582 182.33447266 C-123.19886894 182.3331131 -123.19886894 182.3331131 -124.58808899 182.33172607 C-136.59030411 182.45166326 -148.49462126 186.55669227 -157.37109375 194.8984375 C-161.74236174 199.71664312 -165.13250707 205.09626763 -168.23828125 210.79296875 C-168.63418457 211.51758301 -169.03008789 212.24219727 -169.43798828 212.98876953 C-170.21972113 214.43679216 -170.98803992 215.89214984 -171.74169922 217.35498047 C-174.46381349 222.44436416 -174.46381349 222.44436416 -176.94458008 223.39038086 C-178.9375 223.625 -178.9375 223.625 -180.9375 222.625 C-180.45712949 216.15108355 -178.7610713 211.21865712 -176 205.375 C-175.59740967 204.50657471 -175.19481934 203.63814941 -174.7800293 202.7434082 C-173.5133705 200.03032729 -172.22728619 197.32715131 -170.9375 194.625 C-170.54884766 193.7985498 -170.16019531 192.97209961 -169.75976562 192.12060547 C-163.95868956 179.83148381 -157.28457823 168.19063922 -150.13671875 156.63671875 C-149.59700439 155.76321777 -149.05729004 154.8897168 -148.5012207 153.98974609 C-147.1223268 151.90450544 -145.64530535 150.10030441 -144.0234375 148.20703125 C-140.63113968 143.54700923 -141.58390063 138.11718455 -141.875 132.625 C-142.14234871 122.45322848 -141.5082737 114.24494624 -137.9375 104.625 C-137.4115625 103.11873047 -137.4115625 103.11873047 -136.875 101.58203125 C-123.34784599 66.02628268 -90.23306517 36.03160535 -57.9375 17.625 C-57.31858887 17.26841309 -56.69967773 16.91182617 -56.06201172 16.54443359 C-47.61615805 11.72032257 -39.02217251 7.66974363 -29.9375 4.1875 C-28.64779297 3.6925 -28.64779297 3.6925 -27.33203125 3.1875 C-8.27564192 -3.87370473 -8.27564192 -3.87370473 0 0 Z M-20.4375 6.4375 C-21.34604736 6.7466333 -22.25459473 7.0557666 -23.19067383 7.37426758 C-41.16687868 13.71312394 -57.53801506 22.44418461 -72.9375 33.625 C-73.81414307 34.24133301 -73.81414307 34.24133301 -74.70849609 34.87011719 C-102.25511901 54.31384927 -129.17819572 84.51521503 -136.4453125 118.15625 C-137.31899109 124.31360387 -137.16929121 130.41814651 -136.9375 136.625 C-133.18100134 133.25444298 -130.86649506 129.47211261 -128.3125 125.1875 C-124.02911404 118.17658749 -119.36803771 111.67219484 -114.23925781 105.26220703 C-112.86978062 103.53983005 -111.52296593 101.80146692 -110.1796875 100.05859375 C-105.32564653 93.7781868 -100.35946706 87.69705801 -94.98046875 81.8515625 C-93.10790692 79.81072074 -91.29920466 77.73036303 -89.5 75.625 C-82.88960187 68.05058548 -75.65410212 61.06171482 -67.9375 54.625 C-67.39915527 54.17286133 -66.86081055 53.72072266 -66.30615234 53.25488281 C-58.60362339 46.80692463 -50.75554042 40.62790416 -42.5625 34.8125 C-41.4653064 34.02999878 -41.4653064 34.02999878 -40.34594727 33.23168945 C-35.18959929 29.625 -35.18959929 29.625 -32.9375 29.625 C-34.19289734 33.39119201 -35.5758355 34.02192784 -38.8125 36.25 C-47.57004947 42.4471275 -55.68187834 49.28690167 -63.60546875 56.51171875 C-65.68784736 58.39876537 -67.80253064 60.23558233 -69.9375 62.0625 C-77.52384205 68.68330761 -84.4299044 75.95388419 -90.9375 83.625 C-92.09958984 84.95337891 -92.09958984 84.95337891 -93.28515625 86.30859375 C-105.6355512 100.51876359 -116.81676239 115.75598497 -126.9375 131.625 C-127.57816406 132.62789062 -128.21882813 133.63078125 -128.87890625 134.6640625 C-132.00085607 139.30342139 -132.00085607 139.30342139 -132.9375 144.625 C-119.76974402 149.01425199 -104.26609035 145.07788236 -92.1796875 139.30859375 C-89.64335643 137.87732011 -87.30491903 136.32133962 -84.9375 134.625 C-83.92300781 133.90441406 -82.90851563 133.18382812 -81.86328125 132.44140625 C-63.92690022 119.34270505 -51.0757555 102.67852643 -39.9375 83.625 C-39.9375 83.295 -39.9375 82.965 -39.9375 82.625 C-40.77152344 82.58761719 -41.60554688 82.55023438 -42.46484375 82.51171875 C-56.54218162 81.68933131 -56.54218162 81.68933131 -61.9375 78.625 C-62.2675 77.635 -62.5975 76.645 -62.9375 75.625 C-61.92300781 75.65851563 -60.90851563 75.69203125 -59.86328125 75.7265625 C-48.00168838 75.41969542 -36.3710128 70.46174356 -28.0625 62 C-17.99416338 49.88940443 -10.62203206 35.23524469 -4.9375 20.625 C-4.57914063 19.70847656 -4.22078125 18.79195312 -3.8515625 17.84765625 C-2.34572046 13.69622935 -1.3921535 10.09684128 -1.9375 5.625 C-3.82738979 3.31255678 -3.82738979 3.31255678 -6.96875 3.32421875 C-11.78716686 3.68939404 -15.88306061 4.88124587 -20.4375 6.4375 Z " fill="#21201F" transform="translate(261.9375,28.375)"/>
</svg>
