<?xml version="1.0" encoding="UTF-8"?>
<svg version="1.1" xmlns="http://www.w3.org/2000/svg" width="313" height="313">
<path d="M0 0 C103.29 0 206.58 0 313 0 C313 103.29 313 206.58 313 313 C209.71 313 106.42 313 0 313 C0 209.71 0 106.42 0 0 Z " fill="#FCFCFC" transform="translate(0,0)"/>
<path d="M0 0 C103.29 0 206.58 0 313 0 C313 103.29 313 206.58 313 313 C209.71 313 106.42 313 0 313 C0 209.71 0 106.42 0 0 Z M50.95703125 57.38671875 C44.34796431 66.21199975 39.89005793 76.11162702 39.85955811 87.18386841 C39.85384796 88.42855392 39.84813782 89.67323944 39.84225464 90.9556427 C39.84100943 92.32736196 39.8398843 93.69908133 39.83886719 95.07080078 C39.83423556 96.5216535 39.82921044 97.972505 39.82382202 99.4233551 C39.81072662 103.35962203 39.80425831 107.29587193 39.79981136 111.23215723 C39.79687517 113.69516762 39.79276927 116.15817342 39.78830719 118.62118149 C39.77463793 126.3381635 39.76496927 134.05513494 39.7611053 141.77212822 C39.75663001 150.65971477 39.73910434 159.5471471 39.7101047 168.43468678 C39.68843227 175.31728365 39.67839801 182.19983731 39.67706418 189.08246791 C39.67601985 193.18690674 39.67019215 197.29120049 39.65224457 201.39560318 C39.63566804 205.26163442 39.63365438 209.12741304 39.64238358 212.99346733 C39.64314894 214.40468336 39.6388781 215.81591351 39.62892532 217.22709465 C39.53403606 231.53156328 42.49539845 244.63969793 51.25 256.3125 C60.79157351 265.63721957 72.00666931 271.0961439 85.39819336 271.14717102 C87.33661354 271.15790398 87.33661354 271.15790398 89.31419373 271.16885376 C90.73941016 271.17169374 92.16462685 271.1744055 93.58984375 271.17700195 C95.09656428 271.18327127 96.60328328 271.18991849 98.11000061 271.19691467 C103.05248956 271.2179089 107.99497863 271.22831552 112.9375 271.23828125 C114.64379899 271.24233111 116.35009782 271.2464481 118.05639648 271.25063133 C126.07772333 271.26967604 134.09904103 271.28390629 142.12038612 271.2922433 C151.35437716 271.30200101 160.58812756 271.32828512 169.82203388 271.36874419 C176.97472228 271.39899938 184.12734209 271.41372121 191.28009319 271.41702431 C195.54449344 271.41936486 199.80863641 271.4281941 204.07296753 271.45348549 C208.091717 271.4769353 212.1100429 271.4809324 216.12884331 271.47072411 C217.5940537 271.47023265 219.05928616 271.47643636 220.52443123 271.49028015 C235.58880417 271.62451485 248.57777513 268.40556862 260.02734375 258.19140625 C270.89419962 246.7538621 273.30283585 233.65464534 273.29052734 218.55029297 C273.29651821 217.08268392 273.30332504 215.61507801 273.31088257 214.1474762 C273.32849773 210.17398709 273.33323618 206.20058422 273.33451414 202.22705984 C273.33593939 199.73888989 273.34021616 197.25074161 273.34550858 194.76257706 C273.3639974 186.06566232 273.37218105 177.36880874 273.37060547 168.671875 C273.36940593 160.59268217 273.39047431 152.51375728 273.4220928 144.43463218 C273.44834113 137.47722024 273.45896912 130.51989532 273.45769465 123.56243432 C273.45718732 119.41656636 273.46274215 115.27093645 273.48405075 111.12511826 C273.50357687 107.21958552 273.50346086 103.31451426 273.48901749 99.40896416 C273.48694561 97.98568603 273.49153205 96.56237791 273.5037384 95.13915062 C273.62726496 79.72196637 269.93305321 66.23931012 259.3125 54.75 C247.29594744 43.46310528 232.76103588 41.53985003 216.89086914 41.59594727 C215.41266875 41.59023055 213.93447276 41.58326132 212.45628357 41.57514954 C208.47684462 41.55734718 204.49762772 41.5583618 200.51816106 41.56409192 C197.18097263 41.56720241 193.84382572 41.56107085 190.50664324 41.55505317 C182.62687025 41.5410522 174.74720579 41.54253238 166.86743164 41.55395508 C158.77051223 41.56543403 150.67392414 41.55135433 142.57704836 41.5245586 C135.59404725 41.50232458 128.61114955 41.49578143 121.62811559 41.50163502 C117.47115886 41.50498719 113.31441443 41.50270633 109.15748787 41.48538399 C105.24612306 41.4697931 101.33524512 41.47400299 97.4238987 41.49268913 C95.99901159 41.49634162 94.57408741 41.49336561 93.14923477 41.48280334 C77.11264654 41.37311665 62.29005436 45.49973932 50.95703125 57.38671875 Z " fill="#FEFEFE" transform="translate(0,0)"/>
<path d="M0 0 C3.40443263 2.55739676 6.01051632 4.6505401 8.38671875 8.21484375 C10.28014784 8.68791676 10.28014784 8.68791676 12.44921875 8.65625 C13.24585938 8.68267578 14.0425 8.70910156 14.86328125 8.73632812 C16.11238281 8.75663086 16.11238281 8.75663086 17.38671875 8.77734375 C19.0327535 8.81174231 20.67864358 8.85432651 22.32421875 8.90625 C23.42056641 8.92473999 23.42056641 8.92473999 24.5390625 8.94360352 C26.38671875 9.21484375 26.38671875 9.21484375 28.38671875 11.21484375 C28.45666026 18.09534017 24.97483576 21.79049516 20.88671875 27.02734375 C14.34588323 35.93203271 13.07666202 42.33322862 13.39550781 53.13964844 C13.34142427 65.90937464 7.42859643 79.44353001 -0.61328125 89.21484375 C-3.82475102 92.3669335 -7.18720851 95.30021712 -10.61328125 98.21484375 C-11.27328125 98.87484375 -11.93328125 99.53484375 -12.61328125 100.21484375 C-11.86304688 101.14683594 -11.1128125 102.07882813 -10.33984375 103.0390625 C-5.13337822 109.5189413 0.05185961 116.01388655 5.13671875 122.58984375 C5.78133057 123.41875122 5.78133057 123.41875122 6.43896484 124.2644043 C9.38671875 128.09551031 9.38671875 128.09551031 9.38671875 129.21484375 C3.00072142 129.36779 -3.38479859 129.47238963 -9.7722168 129.54443359 C-11.9419927 129.57448634 -14.11164833 129.61534112 -16.28100586 129.66748047 C-19.41159837 129.74080319 -22.54057632 129.77441591 -25.671875 129.80078125 C-27.11148842 129.84723282 -27.11148842 129.84723282 -28.58018494 129.8946228 C-36.91584546 129.89872767 -41.8970288 126.76823582 -47.82495117 121.10009766 C-48.57675659 120.15529541 -48.57675659 120.15529541 -49.34375 119.19140625 C-49.91931641 118.47984375 -50.49488281 117.76828125 -51.08789062 117.03515625 C-51.65314453 116.31070313 -52.21839844 115.58625 -52.80078125 114.83984375 C-53.66606445 113.76476562 -53.66606445 113.76476562 -54.54882812 112.66796875 C-58.34217596 107.92949141 -61.99775328 103.08984232 -65.61328125 98.21484375 C-69.68880129 100.05764539 -72.01953963 102.73611994 -74.80078125 106.15234375 C-75.2805542 106.72847412 -75.76032715 107.30460449 -76.25463867 107.89819336 C-78.57881424 110.69758497 -80.86610438 113.52355083 -83.12109375 116.37890625 C-91.42134971 126.81753324 -91.42134971 126.81753324 -98.61328125 129.21484375 C-100.19361317 129.30189804 -101.77738503 129.33252327 -103.36010742 129.32836914 C-104.32087692 129.32829361 -105.28164642 129.32821808 -106.27153015 129.32814026 C-107.3059877 129.32297897 -108.34044525 129.31781769 -109.40625 129.3125 C-110.99799797 129.31037758 -110.99799797 129.31037758 -112.62190247 129.30821228 C-116.0148906 129.30260981 -119.40781302 129.29005689 -122.80078125 129.27734375 C-125.09960842 129.27232907 -127.39843663 129.26776611 -129.69726562 129.26367188 C-135.33595997 129.25263958 -140.97461591 129.23589905 -146.61328125 129.21484375 C-140.32108983 120.80265168 -140.32108983 120.80265168 -137.3515625 116.98828125 C-136.79597656 116.27406006 -136.24039063 115.55983887 -135.66796875 114.82397461 C-135.09304687 114.08671143 -134.518125 113.34944824 -133.92578125 112.58984375 C-133.31347656 111.80424072 -132.70117188 111.0186377 -132.0703125 110.20922852 C-130.83065696 108.61946713 -129.59059226 107.03002471 -128.35009766 105.44091797 C-126.81450236 103.47274845 -125.28185285 101.50233209 -123.75 99.53125 C-118.1360448 92.32682847 -112.37804116 85.25256381 -106.55419922 78.21679688 C-102.47899516 73.28779482 -98.47658797 68.31266578 -94.61328125 63.21484375 C-97.18203998 58.55502528 -100.42595276 54.61185046 -103.80078125 50.52734375 C-104.98205177 49.08616773 -106.16304251 47.64476233 -107.34375 46.203125 C-108.19525635 45.16599365 -108.19525635 45.16599365 -109.06396484 44.10791016 C-110.93240773 41.82491203 -112.77661307 39.52346093 -114.61328125 37.21484375 C-116.90003971 34.34321206 -119.20446929 31.48765954 -121.53125 28.6484375 C-127.38785118 21.49639562 -133.16629291 14.29371283 -138.80078125 6.96484375 C-139.35338623 6.24997803 -139.90599121 5.5351123 -140.4753418 4.79858398 C-141.24551636 3.79033569 -141.24551636 3.79033569 -142.03125 2.76171875 C-142.48266357 2.17229492 -142.93407715 1.58287109 -143.39916992 0.97558594 C-144.67432487 -0.87368362 -145.62781137 -2.76972935 -146.61328125 -4.78515625 C-140.17211508 -4.86137727 -133.73106575 -4.91382783 -127.28955078 -4.94995117 C-125.0994024 -4.96501431 -122.90928406 -4.98546884 -120.71923828 -5.01147461 C-117.56665622 -5.04796614 -114.41447388 -5.06490764 -111.26171875 -5.078125 C-110.28649261 -5.09360886 -109.31126648 -5.10909271 -108.30648804 -5.12504578 C-102.12361723 -5.12656777 -97.91405603 -4.32593322 -92.8828125 -0.453125 C-87.40402998 5.11378807 -82.7222202 11.30485723 -77.95898438 17.47998047 C-75.97468091 20.03811915 -73.95171138 22.56461524 -71.92578125 25.08984375 C-71.28253906 25.89164063 -70.63929688 26.6934375 -69.9765625 27.51953125 C-69.52667969 28.07898438 -69.07679688 28.6384375 -68.61328125 29.21484375 C-64.38453942 26.12694953 -61.4753338 22.72357212 -58.36328125 18.58984375 C-43.22427246 -0.9799078 -24.21512607 -16.54157341 0 0 Z " fill="#131415" transform="translate(217.61328125,94.78515625)"/>
<path d="M0 0 C1.47923031 -0.00435311 2.95845836 -0.00953824 4.43768311 -0.01548767 C8.43791314 -0.02882726 12.43804839 -0.02946178 16.43829632 -0.02692437 C19.78779675 -0.02585083 23.13727831 -0.03074799 26.48677468 -0.03552979 C34.39614554 -0.04660842 42.3054689 -0.04707222 50.21484375 -0.04101562 C58.34913266 -0.03498208 66.48324833 -0.04727484 74.6175077 -0.06858569 C81.62248064 -0.08625688 88.62739873 -0.09219423 95.63239312 -0.08894795 C99.80667093 -0.08714309 103.98082526 -0.08969064 108.1550827 -0.10366249 C112.08519132 -0.11632572 116.01503207 -0.11421736 119.94513702 -0.1012516 C121.3785054 -0.0989043 122.81189312 -0.10155334 124.24523926 -0.10987473 C139.763215 -0.19339015 153.32610863 2.57565617 165.07910156 13.2746582 C176.2647479 25.14309085 178.63240913 39.19488002 178.61962891 54.85375977 C178.62562146 56.32313882 178.63242867 57.79251475 178.63998413 59.2618866 C178.6575786 63.23524938 178.66233676 67.20852589 178.6636157 71.18192387 C178.66504172 73.66992388 178.66931986 76.15790228 178.67461014 78.64589691 C178.6930896 87.34166342 178.70128347 96.0373688 178.69970703 104.7331543 C178.69850659 112.81295577 178.71959506 120.8924897 178.75119436 128.97222352 C178.77742873 135.93048924 178.78807132 142.88866798 178.78679621 149.84698272 C178.78628863 153.99336277 178.79185818 158.1395049 178.81315231 162.28583527 C178.83265571 166.18973678 178.8325776 170.09317637 178.81811905 173.99709511 C178.81604466 175.42079412 178.8206491 176.84452298 178.83283997 178.26817131 C178.94901815 192.78881232 175.47355214 205.48197585 165.41503906 216.34106445 C153.33510903 227.48251386 140.04412624 229.73392622 124.05810547 229.67871094 C122.5504964 229.68442561 121.04289164 229.69139408 119.53529358 229.69950867 C115.47108884 229.7173351 111.40710125 229.71629157 107.34286928 229.71056628 C103.93614213 229.70745881 100.52945575 229.71358417 97.12273443 229.71960503 C89.0785327 229.73361441 81.03443726 229.73211923 72.99023438 229.72070312 C64.72235915 229.70922806 56.45480854 229.72329541 48.18697608 229.7500996 C41.05962312 229.77233167 33.93237149 229.77887707 26.80498636 229.77302319 C22.5608259 229.76966998 18.31687339 229.77195868 14.07274246 229.78927422 C10.078496 229.80486147 6.0847264 229.80065907 2.09049797 229.78196907 C0.63497311 229.77831535 -0.82058803 229.7812963 -2.27607918 229.79185486 C-15.65355792 229.88139829 -26.9880326 227.62064714 -37.67089844 219.2746582 C-38.50363281 218.66235352 -39.33636719 218.05004883 -40.19433594 217.41918945 C-48.39292674 210.31977881 -53.07470858 198.79074909 -54.67089844 188.2746582 C-54.95903636 183.42848592 -54.9552166 178.58684251 -54.94555664 173.73388672 C-54.94991115 172.28082011 -54.95509675 170.82775579 -54.96104431 169.37469482 C-54.97436516 165.45110159 -54.97502081 161.52760508 -54.97248101 157.60399365 C-54.97140673 154.31887291 -54.97630623 151.03377138 -54.98108643 147.74865478 C-54.99215739 139.99420558 -54.99263243 132.23980483 -54.98657227 124.48535156 C-54.98053199 116.50607496 -54.99285037 108.52697466 -55.01414233 100.54772812 C-55.03179709 93.67694753 -55.03775366 86.80622287 -55.03450459 79.93542045 C-55.03269799 75.8405861 -55.03526547 71.74587757 -55.04921913 67.65106392 C-55.06185642 63.79891999 -55.05979811 59.94704972 -55.04680824 56.09490967 C-55.04445581 54.68811383 -55.04712888 53.28129837 -55.05543137 51.87452507 C-55.13599606 37.15262569 -51.81565011 24.63108708 -41.67089844 13.5246582 C-29.76880903 2.30729136 -15.69881025 -0.03059789 0 0 Z M-37.67089844 25.2746582 C-42.18592423 32.87215238 -44.78563762 39.31702934 -44.81134033 48.17932129 C-44.81705048 49.36221741 -44.82276062 50.54511353 -44.8286438 51.76385498 C-44.82976166 53.05325989 -44.83087952 54.34266479 -44.83203125 55.67114258 C-44.83666335 57.04978568 -44.84168853 58.42842751 -44.84707642 59.80706787 C-44.86016993 63.54719433 -44.86664012 67.28730286 -44.87108707 71.02744865 C-44.87402443 73.36919772 -44.87813061 75.71094197 -44.88259125 78.0526886 C-44.89626191 85.3937838 -44.90592909 92.73486789 -44.90979314 100.07597494 C-44.91426452 108.52264111 -44.93177127 116.9691447 -44.96079373 125.41576147 C-44.98249504 131.96123755 -44.992502 138.50666819 -44.99383426 145.05217981 C-44.99487682 148.95324115 -45.00066577 152.85414959 -45.01865387 156.75517273 C-45.03528002 160.43243556 -45.0372206 164.10943298 -45.02851486 167.78672028 C-45.02739203 169.75824434 -45.04099893 171.72976016 -45.05526733 173.70123291 C-44.99949504 185.77326213 -43.47203999 197.62095798 -35.67089844 207.2746582 C-27.85669098 214.92698942 -18.46571451 219.3791526 -7.53808594 219.42182922 C-6.27939194 219.42898453 -5.02069794 219.43613983 -3.72386169 219.44351196 C-2.33120752 219.44635209 -0.93855308 219.44906384 0.45410156 219.45166016 C1.92288879 219.45792784 3.39167444 219.46457491 4.86045837 219.47157288 C9.68332826 219.49258802 14.50619836 219.50297623 19.32910156 219.51293945 C20.99301164 219.51698864 22.65692155 219.52110561 24.3208313 219.52528954 C32.14300131 219.54433946 39.96516192 219.55856817 47.78735065 219.5669015 C56.79610244 219.57665882 65.80460754 219.60293963 74.81327248 219.6434024 C81.78843192 219.67364835 88.76352103 219.68837858 95.73874474 219.69168252 C99.8986138 219.69402429 104.05821928 219.70286951 108.21801758 219.72814369 C112.13826074 219.75157696 116.05806966 219.75559713 119.97836494 219.74538231 C121.40851862 219.74489044 122.83869479 219.75110667 124.26878166 219.76493835 C136.85822849 219.87977851 147.42812919 217.93292167 157.13769531 209.5480957 C160.67645152 205.87687268 163.17929177 201.88235021 165.32910156 197.2746582 C165.84195709 196.19300385 166.35481262 195.11134949 166.88320923 193.99691772 C169.14339186 187.86221055 168.74813733 181.48106055 168.71728516 175.03100586 C168.72135604 173.59778952 168.72670082 172.16457633 168.73321533 170.73136902 C168.74683585 166.85724893 168.74161155 162.98336982 168.73207808 159.10924578 C168.72445112 155.04201162 168.73153576 150.97479728 168.73623657 146.90756226 C168.74168656 140.07676514 168.73452374 133.2460655 168.72021484 126.4152832 C168.70390284 118.53769531 168.70916929 110.66034056 168.72569406 102.78275836 C168.7393462 96.00116035 168.74121004 89.2196322 168.73337805 82.43802488 C168.72872028 78.39572355 168.72802386 74.35353148 168.73798752 70.31123734 C168.74670892 66.50751504 168.74054185 62.70409057 168.72330475 58.90040016 C168.71936677 57.51134928 168.72042737 56.12227297 168.72709274 54.7332325 C168.78798161 40.74515603 166.06354532 31.31857713 157.07910156 20.5871582 C149.81276803 14.47683228 143.41471083 11.17089983 133.93054199 11.11402893 C132.61294891 11.10398331 131.29535583 11.09393768 129.93783569 11.08358765 C128.47906551 11.07755782 127.02029473 11.0716728 125.56152344 11.06591797 C124.02377104 11.05637592 122.48602078 11.0464846 120.94827271 11.03627014 C115.89815814 11.00491568 110.84802729 10.98461691 105.79785156 10.96606445 C104.93733248 10.96276713 104.07681339 10.95946981 103.19021797 10.95607257 C95.06695922 10.92528521 86.94369665 10.89859052 78.82039642 10.88165379 C68.44970357 10.85977432 58.07953018 10.81785851 47.70904493 10.74821621 C40.40692938 10.70085545 33.10495334 10.67670392 25.80268908 10.6694569 C21.44706043 10.66451754 17.09201759 10.64960213 12.73655701 10.6097126 C8.632328 10.57261995 4.52901386 10.56450963 0.42464828 10.57771873 C-1.07325542 10.57766515 -2.57120201 10.56751991 -4.06895065 10.5459671 C-17.62875726 10.36143559 -29.26895265 14.02840115 -37.67089844 25.2746582 Z " fill="#121414" transform="translate(94.6708984375,41.725341796875)"/>
<path d="M0 0 C4.30526434 2.4866613 8.02052372 5.26492836 10.0625 9.859375 C11.63335619 12.30218735 11.63335619 12.30218735 14.43359375 12.578125 C17.23284023 12.83487117 20.00250464 12.99439631 22.8125 13.046875 C19.24974327 19.48724294 19.24974327 19.48724294 17.29223633 21.99267578 C12.48994176 28.23943074 12.00340395 33.25573037 12.125 40.984375 C12.18837314 55.31575817 9.04483728 68.01595106 -1.3125 78.546875 C-3.80993058 80.91391763 -6.40737298 83.0204713 -9.1875 85.046875 C-13.64788059 83.48626903 -15.97523282 79.90065003 -18.75 76.296875 C-19.2773877 75.62438721 -19.80477539 74.95189941 -20.34814453 74.2590332 C-21.44012735 72.86539136 -22.52897848 71.46929023 -23.61474609 70.07080078 C-25.47981702 67.67070175 -27.36341049 65.28566915 -29.24829102 62.90112305 C-30.58242406 61.20910627 -31.90889479 59.51130113 -33.234375 57.8125 C-35.45290819 54.97240828 -37.69930943 52.15591263 -39.953125 49.34375 C-41.23973178 47.72407625 -42.52619168 46.1042858 -43.8125 44.484375 C-44.73748291 43.34101685 -44.73748291 43.34101685 -45.68115234 42.17456055 C-46.2530127 41.45051025 -46.82487305 40.72645996 -47.4140625 39.98046875 C-48.18097412 39.0222522 -48.18097412 39.0222522 -48.96337891 38.04467773 C-50.42406003 35.66080186 -50.95669311 33.83077409 -51.1875 31.046875 C-49.63794067 28.75595787 -48.17635392 26.92474148 -46.3125 24.921875 C-45.28664464 23.77182765 -44.26192163 22.62076932 -43.23828125 21.46875 C-42.72217285 20.89576172 -42.20606445 20.32277344 -41.67431641 19.73242188 C-39.51886578 17.28886997 -37.51737132 14.72980291 -35.5 12.171875 C-26.14540696 0.70873326 -15.04764866 -6.64604483 0 0 Z " fill="#FCFCFC" transform="translate(208.1875,100.953125)"/>
<path d="M0 0 C3.49911695 -0.20537903 6.99666666 -0.32829941 10.5 -0.4375 C11.48226562 -0.49615234 12.46453125 -0.55480469 13.4765625 -0.61523438 C18.91223135 -0.74206665 22.2446177 -0.39734411 26.453125 3.21484375 C27.66711574 4.44609282 28.85337567 5.70578192 30 7 C30.76828125 7.845625 31.5365625 8.69125 32.328125 9.5625 C32.96234375 10.366875 33.5965625 11.17125 34.25 12 C35.0028125 12.94617188 35.755625 13.89234375 36.53125 14.8671875 C37.3459375 15.90101562 38.160625 16.93484375 39 18 C39.92557446 19.14965391 40.85272102 20.29804351 41.78125 21.4453125 C47.70959156 28.78342454 53.4960391 36.21992025 59.20947266 43.72631836 C63.96236523 49.96742573 68.79534221 56.14196547 73.65722656 62.29833984 C75.94302174 65.19506573 78.22097095 68.09795026 80.5 71 C80.95246094 71.57556641 81.40492188 72.15113281 81.87109375 72.74414062 C84.19097419 75.69521361 86.50804842 78.64842337 88.8203125 81.60546875 C93.76353176 87.92194743 98.75813077 94.18611036 103.8515625 100.3828125 C106.09965939 103.12140325 108.3367594 105.8682055 110.5625 108.625 C111.55443359 109.85089844 111.55443359 109.85089844 112.56640625 111.1015625 C114 113 114 113 114 114 C110.50088305 114.20537903 107.00333334 114.32829941 103.5 114.4375 C102.51773438 114.49615234 101.53546875 114.55480469 100.5234375 114.61523438 C95.15728828 114.74044452 91.77803222 114.42150696 87.60546875 110.875 C86.36674866 109.61867455 85.1618874 108.32770433 84 107 C83.2886792 106.19284546 83.2886792 106.19284546 82.56298828 105.36938477 C81.25795717 103.80250992 80.03000123 102.19811837 78.8125 100.5625 C77.87382267 99.33484521 76.93365524 98.10832868 75.9921875 96.8828125 C75.50717773 96.24891602 75.02216797 95.61501953 74.52246094 94.96191406 C71.89003934 91.569653 69.15937551 88.2580683 66.4375 84.9375 C62.46535584 80.07662724 58.55613697 75.17949869 54.75 70.1875 C49.85223195 63.7647716 44.74222611 57.53164271 39.59960938 51.30419922 C32.15780079 42.27503238 24.96507722 33.08650565 17.90795898 23.75341797 C13.19556379 17.53179432 8.3861206 11.40129729 3.45288086 5.35327148 C0 1.10007408 0 1.10007408 0 0 Z " fill="#FBFBFB" transform="translate(92,100)"/>
<path d="M0 0 C3.55230779 1.1841026 4.24146766 2.29587186 6.4375 5.25 C7.0459375 6.05824219 7.654375 6.86648437 8.28125 7.69921875 C8.8484375 8.45847656 9.415625 9.21773437 10 10 C11.32917292 11.66998649 12.66014102 13.33857487 14 15 C9.07296386 26.02233859 -2.46493587 37.46493587 -11 46 C-14.14859574 47.09099101 -17.10980508 47.11605664 -20.421875 47.09765625 C-21.44667969 47.09443359 -22.47148438 47.09121094 -23.52734375 47.08789062 C-24.59082031 47.07951172 -25.65429688 47.07113281 -26.75 47.0625 C-27.82894531 47.05798828 -28.90789062 47.05347656 -30.01953125 47.04882812 C-32.67974383 47.03705727 -35.33984365 47.02061399 -38 47 C-34.38882315 41.37200594 -30.62163998 36.12816473 -26.1875 31.125 C-25.12921458 29.91102184 -24.07193168 28.69616904 -23.015625 27.48046875 C-22.50193359 26.89056152 -21.98824219 26.3006543 -21.45898438 25.69287109 C-19.40620959 23.3110203 -17.41902857 20.87877171 -15.4375 18.4375 C-10.3838233 12.2133026 -5.19422457 6.10685468 0 0 Z " fill="#FBFBFB" transform="translate(130,167)"/>
<path d="M0 0 C1.9375 1.125 1.9375 1.125 3 3 C3.38976435 6.11811483 3.50422245 8.11019567 1.9375 10.875 C-1.1069286 12.64273274 -3.5631012 12.36823916 -7 12 C-8.9375 10.875 -8.9375 10.875 -10 9 C-10.38976435 5.88188517 -10.50422245 3.88980433 -8.9375 1.125 C-5.8930714 -0.64273274 -3.4368988 -0.36823916 0 0 Z " fill="#111213" transform="translate(206,113)"/>
<path d="M0 0 C3.3 0 6.6 0 10 0 C7.833052 3.852352 5.62312868 7.6692945 3.3125 11.4375 C2.89613281 12.11683594 2.47976562 12.79617187 2.05078125 13.49609375 C1.70402344 13.99238281 1.35726562 14.48867187 1 15 C0.67 15 0.34 15 0 15 C0 10.05 0 5.1 0 0 Z " fill="#F06846" transform="translate(221,114)"/>
</svg>
